<svg xmlns="http://www.w3.org/2000/svg" width="3515.879414062502" height="800.0"><line x1="30.0" x2="3485.879414062502" y1="25.0" y2="25.0" stroke="#1967d2" stroke-width="1" /><line x1="30.0" x2="3485.879414062502" y1="75.0" y2="75.0" stroke="#1967d2" stroke-width="1" /><line x1="30.0" x2="3485.879414062502" y1="125.0" y2="125.0" stroke="#1967d2" stroke-width="1" /><line x1="30.0" x2="3485.879414062502" y1="175.0" y2="175.0" stroke="#1967d2" stroke-width="1" /><line x1="30.0" x2="3485.879414062502" y1="225.0" y2="225.0" stroke="#1967d2" stroke-width="1" /><line x1="30.0" x2="3485.879414062502" y1="275.0" y2="275.0" stroke="#1967d2" stroke-width="1" /><line x1="30.0" x2="3485.879414062502" y1="325.0" y2="325.0" stroke="#1967d2" stroke-width="1" /><line x1="30.0" x2="3485.879414062502" y1="375.0" y2="375.0" stroke="#1967d2" stroke-width="1" /><line x1="30.0" x2="3485.879414062502" y1="425.0" y2="425.0" stroke="#1967d2" stroke-width="1" /><line x1="30.0" x2="3485.879414062502" y1="475.0" y2="475.0" stroke="#1967d2" stroke-width="1" /><line x1="30.0" x2="3485.879414062502" y1="525.0" y2="525.0" stroke="#1967d2" stroke-width="1" /><line x1="30.0" x2="3485.879414062502" y1="575.0" y2="575.0" stroke="#1967d2" stroke-width="1" /><line x1="30.0" x2="3485.879414062502" y1="625.0" y2="625.0" stroke="#1967d2" stroke-width="1" /><line x1="30.0" x2="3485.879414062502" y1="675.0" y2="675.0" stroke="#1967d2" stroke-width="1" /><line x1="30.0" x2="3485.879414062502" y1="725.0" y2="725.0" stroke="#1967d2" stroke-width="1" /><line x1="30.0" x2="3485.879414062502" y1="775.0" y2="775.0" stroke="#1967d2" stroke-width="1" /><line x1="99.807890625" x2="99.807890625" y1="25.0" y2="125.0" stroke="black" stroke-width="3" /><line x1="179.423671875" x2="179.423671875" y1="75.0" y2="175.0" stroke="black" stroke-width="3" /><line x1="259.039453125" x2="259.039453125" y1="125.0" y2="225.0" stroke="black" stroke-width="3" /><line x1="338.65523437499996" x2="338.65523437499996" y1="175.0" y2="275.0" stroke="black" stroke-width="3" /><line x1="418.271015625" x2="418.271015625" y1="225.0" y2="325.0" stroke="black" stroke-width="3" /><line x1="497.88679687499996" x2="497.88679687499996" y1="275.0" y2="375.0" stroke="black" stroke-width="3" /><line x1="577.502578125" x2="577.502578125" y1="325.0" y2="425.0" stroke="black" stroke-width="3" /><line x1="657.118359375" x2="657.118359375" y1="375.0" y2="475.0" stroke="black" stroke-width="3" /><line x1="736.734140625" x2="736.734140625" y1="425.0" y2="525.0" stroke="black" stroke-width="3" /><line x1="816.3499218750001" x2="816.3499218750001" y1="475.0" y2="575.0" stroke="black" stroke-width="3" /><line x1="895.9657031250001" x2="895.9657031250001" y1="525.0" y2="625.0" stroke="black" stroke-width="3" /><line x1="975.5814843750002" x2="975.5814843750002" y1="575.0" y2="675.0" stroke="black" stroke-width="3" /><line x1="1055.1972656250002" x2="1055.1972656250002" y1="625.0" y2="725.0" stroke="black" stroke-width="3" /><line x1="1134.8130468750003" x2="1134.8130468750003" y1="675.0" y2="775.0" stroke="black" stroke-width="3" /><line x1="1214.4288281250003" x2="1214.4288281250003" y1="25.0" y2="725.0" stroke="black" stroke-width="3" /><line x1="1294.0446093750004" x2="1294.0446093750004" y1="75.0" y2="775.0" stroke="black" stroke-width="3" /><line x1="1374.1286523437504" x2="1374.1286523437504" y1="25.0" y2="275.0" stroke="black" stroke-width="3" /><line x1="1454.6809570312505" x2="1454.6809570312505" y1="75.0" y2="325.0" stroke="black" stroke-width="3" /><line x1="1535.2332617187506" x2="1535.2332617187506" y1="125.0" y2="375.0" stroke="black" stroke-width="3" /><line x1="1615.7855664062506" x2="1615.7855664062506" y1="175.0" y2="425.0" stroke="black" stroke-width="3" /><line x1="1696.3378710937507" x2="1696.3378710937507" y1="475.0" y2="625.0" stroke="black" stroke-width="3" /><line x1="1776.8901757812507" x2="1776.8901757812507" y1="525.0" y2="675.0" stroke="black" stroke-width="3" /><line x1="1857.4424804687508" x2="1857.4424804687508" y1="575.0" y2="725.0" stroke="black" stroke-width="3" /><line x1="1937.9947851562508" x2="1937.9947851562508" y1="225.0" y2="775.0" stroke="black" stroke-width="3" /><line x1="2018.162089843751" x2="2018.162089843751" y1="225.0" y2="325.0" stroke="black" stroke-width="3" /><line x1="2097.944394531251" x2="2097.944394531251" y1="275.0" y2="375.0" stroke="black" stroke-width="3" /><line x1="2177.726699218751" x2="2177.726699218751" y1="325.0" y2="425.0" stroke="black" stroke-width="3" /><line x1="2257.509003906251" x2="2257.509003906251" y1="375.0" y2="475.0" stroke="black" stroke-width="3" /><line x1="2337.291308593751" x2="2337.291308593751" y1="425.0" y2="525.0" stroke="black" stroke-width="3" /><line x1="2417.0736132812513" x2="2417.0736132812513" y1="475.0" y2="575.0" stroke="black" stroke-width="3" /><line x1="2496.8559179687513" x2="2496.8559179687513" y1="225.0" y2="525.0" stroke="black" stroke-width="3" /><line x1="2576.6382226562514" x2="2576.6382226562514" y1="275.0" y2="575.0" stroke="black" stroke-width="3" /><line x1="2646.5293750000014" x2="2646.5293750000014" y1="225.0" y2="375.0" stroke="black" stroke-width="3" /><line x1="2706.5293750000014" x2="2706.5293750000014" y1="275.0" y2="425.0" stroke="black" stroke-width="3" /><line x1="2766.5293750000014" x2="2766.5293750000014" y1="475.0" y2="525.0" stroke="black" stroke-width="3" /><line x1="2826.5293750000014" x2="2826.5293750000014" y1="325.0" y2="575.0" stroke="black" stroke-width="3" /><line x1="2896.3372656250012" x2="2896.3372656250012" y1="325.0" y2="425.0" stroke="black" stroke-width="3" /><line x1="2975.9530468750013" x2="2975.9530468750013" y1="375.0" y2="475.0" stroke="black" stroke-width="3" /><line x1="3055.5688281250013" x2="3055.5688281250013" y1="325.0" y2="425.0" stroke="black" stroke-width="3" /><line x1="3135.1846093750014" x2="3135.1846093750014" y1="375.0" y2="475.0" stroke="black" stroke-width="3" /><line x1="3215.2686523437515" x2="3215.2686523437515" y1="325.0" y2="425.0" stroke="black" stroke-width="3" /><line x1="3295.8209570312515" x2="3295.8209570312515" y1="375.0" y2="475.0" stroke="black" stroke-width="3" /><line x1="3375.988261718752" x2="3375.988261718752" y1="375.0" y2="425.0" stroke="black" stroke-width="3" /><line x1="3445.879414062502" x2="3445.879414062502" y1="375.0" y2="425.0" stroke="black" stroke-width="3" /><rect x="10.0" y="5.0" width="40" height="40" stroke="black" fill="white" stroke-width="0" /><text x="30.0" y="25.0" dominant-baseline="middle" text-anchor="middle" font-size="14px" font-family="Arial">1: </text><rect x="10.0" y="55.0" width="40" height="40" stroke="black" fill="white" stroke-width="0" /><text x="30.0" y="75.0" dominant-baseline="middle" text-anchor="middle" font-size="14px" font-family="Arial">2: </text><rect x="10.0" y="105.0" width="40" height="40" stroke="black" fill="white" stroke-width="0" /><text x="30.0" y="125.0" dominant-baseline="middle" text-anchor="middle" font-size="14px" font-family="Arial">3: </text><rect x="10.0" y="155.0" width="40" height="40" stroke="black" fill="white" stroke-width="0" /><text x="30.0" y="175.0" dominant-baseline="middle" text-anchor="middle" font-size="14px" font-family="Arial">4: </text><rect x="10.0" y="205.0" width="40" height="40" stroke="black" fill="white" stroke-width="0" /><text x="30.0" y="225.0" dominant-baseline="middle" text-anchor="middle" font-size="14px" font-family="Arial">5: </text><rect x="10.0" y="255.0" width="40" height="40" stroke="black" fill="white" stroke-width="0" /><text x="30.0" y="275.0" dominant-baseline="middle" text-anchor="middle" font-size="14px" font-family="Arial">6: </text><rect x="10.0" y="305.0" width="40" height="40" stroke="black" fill="white" stroke-width="0" /><text x="30.0" y="325.0" dominant-baseline="middle" text-anchor="middle" font-size="14px" font-family="Arial">7: </text><rect x="10.0" y="355.0" width="40" height="40" stroke="black" fill="white" stroke-width="0" /><text x="30.0" y="375.0" dominant-baseline="middle" text-anchor="middle" font-size="14px" font-family="Arial">8: </text><rect x="10.0" y="405.0" width="40" height="40" stroke="black" fill="white" stroke-width="0" /><text x="30.0" y="425.0" dominant-baseline="middle" text-anchor="middle" font-size="14px" font-family="Arial">9: </text><rect x="10.0" y="455.0" width="40" height="40" stroke="black" fill="white" stroke-width="0" /><text x="30.0" y="475.0" dominant-baseline="middle" text-anchor="middle" font-size="14px" font-family="Arial">10: </text><rect x="10.0" y="505.0" width="40" height="40" stroke="black" fill="white" stroke-width="0" /><text x="30.0" y="525.0" dominant-baseline="middle" text-anchor="middle" font-size="14px" font-family="Arial">11: </text><rect x="10.0" y="555.0" width="40" height="40" stroke="black" fill="white" stroke-width="0" /><text x="30.0" y="575.0" dominant-baseline="middle" text-anchor="middle" font-size="14px" font-family="Arial">12: </text><rect x="10.0" y="605.0" width="40" height="40" stroke="black" fill="white" stroke-width="0" /><text x="30.0" y="625.0" dominant-baseline="middle" text-anchor="middle" font-size="14px" font-family="Arial">13: </text><rect x="10.0" y="655.0" width="40" height="40" stroke="black" fill="white" stroke-width="0" /><text x="30.0" y="675.0" dominant-baseline="middle" text-anchor="middle" font-size="14px" font-family="Arial">14: </text><rect x="10.0" y="705.0" width="40" height="40" stroke="black" fill="white" stroke-width="0" /><text x="30.0" y="725.0" dominant-baseline="middle" text-anchor="middle" font-size="14px" font-family="Arial">15: </text><rect x="10.0" y="755.0" width="40" height="40" stroke="black" fill="white" stroke-width="0" /><text x="30.0" y="775.0" dominant-baseline="middle" text-anchor="middle" font-size="14px" font-family="Arial">16: </text><circle cx="99.807890625" cy="25.0" r="10.0" /><rect x="70.0" y="105.0" width="59.61578125" height="40" stroke="black" fill="white" stroke-width="1" /><text x="99.807890625" y="125.0" dominant-baseline="middle" text-anchor="middle" font-size="14px" font-family="Arial">Rz(x_0)</text><circle cx="179.423671875" cy="75.0" r="10.0" /><rect x="149.61578125" y="155.0" width="59.61578125" height="40" stroke="black" fill="white" stroke-width="1" /><text x="179.423671875" y="175.0" dominant-baseline="middle" text-anchor="middle" font-size="14px" font-family="Arial">Rz(x_0)</text><circle cx="259.039453125" cy="125.0" r="10.0" /><rect x="229.23156250000002" y="205.0" width="59.61578125" height="40" stroke="black" fill="white" stroke-width="1" /><text x="259.039453125" y="225.0" dominant-baseline="middle" text-anchor="middle" font-size="14px" font-family="Arial">Rz(x_0)</text><circle cx="338.65523437499996" cy="175.0" r="10.0" /><rect x="308.84734374999994" y="255.0" width="59.61578125" height="40" stroke="black" fill="white" stroke-width="1" /><text x="338.65523437499996" y="275.0" dominant-baseline="middle" text-anchor="middle" font-size="14px" font-family="Arial">Rz(x_0)</text><circle cx="418.271015625" cy="225.0" r="10.0" /><rect x="388.463125" y="305.0" width="59.61578125" height="40" stroke="black" fill="white" stroke-width="1" /><text x="418.271015625" y="325.0" dominant-baseline="middle" text-anchor="middle" font-size="14px" font-family="Arial">Rz(x_0)</text><circle cx="497.88679687499996" cy="275.0" r="10.0" /><rect x="468.07890624999993" y="355.0" width="59.61578125" height="40" stroke="black" fill="white" stroke-width="1" /><text x="497.88679687499996" y="375.0" dominant-baseline="middle" text-anchor="middle" font-size="14px" font-family="Arial">Rz(x_0)</text><circle cx="577.502578125" cy="325.0" r="10.0" /><rect x="547.6946875" y="405.0" width="59.61578125" height="40" stroke="black" fill="white" stroke-width="1" /><text x="577.502578125" y="425.0" dominant-baseline="middle" text-anchor="middle" font-size="14px" font-family="Arial">Rz(x_0)</text><circle cx="657.118359375" cy="375.0" r="10.0" /><rect x="627.3104687499999" y="455.0" width="59.61578125" height="40" stroke="black" fill="white" stroke-width="1" /><text x="657.118359375" y="475.0" dominant-baseline="middle" text-anchor="middle" font-size="14px" font-family="Arial">Rz(x_0)</text><circle cx="736.734140625" cy="425.0" r="10.0" /><rect x="706.92625" y="505.0" width="59.61578125" height="40" stroke="black" fill="white" stroke-width="1" /><text x="736.734140625" y="525.0" dominant-baseline="middle" text-anchor="middle" font-size="14px" font-family="Arial">Rz(x_0)</text><circle cx="816.3499218750001" cy="475.0" r="10.0" /><rect x="786.54203125" y="555.0" width="59.61578125" height="40" stroke="black" fill="white" stroke-width="1" /><text x="816.3499218750001" y="575.0" dominant-baseline="middle" text-anchor="middle" font-size="14px" font-family="Arial">Rz(x_0)</text><circle cx="895.9657031250001" cy="525.0" r="10.0" /><rect x="866.1578125000001" y="605.0" width="59.61578125" height="40" stroke="black" fill="white" stroke-width="1" /><text x="895.9657031250001" y="625.0" dominant-baseline="middle" text-anchor="middle" font-size="14px" font-family="Arial">Rz(x_0)</text><circle cx="975.5814843750002" cy="575.0" r="10.0" /><rect x="945.7735937500001" y="655.0" width="59.61578125" height="40" stroke="black" fill="white" stroke-width="1" /><text x="975.5814843750002" y="675.0" dominant-baseline="middle" text-anchor="middle" font-size="14px" font-family="Arial">Rz(x_0)</text><circle cx="1055.1972656250002" cy="625.0" r="10.0" /><rect x="1025.3893750000002" y="705.0" width="59.61578125" height="40" stroke="black" fill="white" stroke-width="1" /><text x="1055.1972656250002" y="725.0" dominant-baseline="middle" text-anchor="middle" font-size="14px" font-family="Arial">Rz(x_0)</text><circle cx="1134.8130468750003" cy="675.0" r="10.0" /><rect x="1105.0051562500003" y="755.0" width="59.61578125" height="40" stroke="black" fill="white" stroke-width="1" /><text x="1134.8130468750003" y="775.0" dominant-baseline="middle" text-anchor="middle" font-size="14px" font-family="Arial">Rz(x_0)</text><circle cx="1214.4288281250003" cy="725.0" r="10.0" /><rect x="1184.6209375000003" y="5.0" width="59.61578125" height="40" stroke="black" fill="white" stroke-width="1" /><text x="1214.4288281250003" y="25.0" dominant-baseline="middle" text-anchor="middle" font-size="14px" font-family="Arial">Rz(x_0)</text><circle cx="1294.0446093750004" cy="775.0" r="10.0" /><rect x="1264.2367187500004" y="55.0" width="59.61578125" height="40" stroke="black" fill="white" stroke-width="1" /><text x="1294.0446093750004" y="75.0" dominant-baseline="middle" text-anchor="middle" font-size="14px" font-family="Arial">Rz(x_0)</text><circle cx="1374.1286523437504" cy="25.0" r="10.0" /><rect x="1343.8525000000004" y="255.0" width="60.5523046875" height="40" stroke="black" fill="white" stroke-width="1" /><text x="1374.1286523437504" y="275.0" dominant-baseline="middle" text-anchor="middle" font-size="14px" font-family="Arial">Rx(x_1)</text><circle cx="1454.6809570312505" cy="75.0" r="10.0" /><rect x="1424.4048046875005" y="305.0" width="60.5523046875" height="40" stroke="black" fill="white" stroke-width="1" /><text x="1454.6809570312505" y="325.0" dominant-baseline="middle" text-anchor="middle" font-size="14px" font-family="Arial">Rx(x_1)</text><circle cx="1535.2332617187506" cy="125.0" r="10.0" /><rect x="1504.9571093750005" y="355.0" width="60.5523046875" height="40" stroke="black" fill="white" stroke-width="1" /><text x="1535.2332617187506" y="375.0" dominant-baseline="middle" text-anchor="middle" font-size="14px" font-family="Arial">Rx(x_1)</text><circle cx="1615.7855664062506" cy="175.0" r="10.0" /><rect x="1585.5094140625006" y="405.0" width="60.5523046875" height="40" stroke="black" fill="white" stroke-width="1" /><text x="1615.7855664062506" y="425.0" dominant-baseline="middle" text-anchor="middle" font-size="14px" font-family="Arial">Rx(x_1)</text><circle cx="1696.3378710937507" cy="625.0" r="10.0" /><rect x="1666.0617187500006" y="455.0" width="60.5523046875" height="40" stroke="black" fill="white" stroke-width="1" /><text x="1696.3378710937507" y="475.0" dominant-baseline="middle" text-anchor="middle" font-size="14px" font-family="Arial">Rx(x_1)</text><circle cx="1776.8901757812507" cy="675.0" r="10.0" /><rect x="1746.6140234375007" y="505.0" width="60.5523046875" height="40" stroke="black" fill="white" stroke-width="1" /><text x="1776.8901757812507" y="525.0" dominant-baseline="middle" text-anchor="middle" font-size="14px" font-family="Arial">Rx(x_1)</text><circle cx="1857.4424804687508" cy="725.0" r="10.0" /><rect x="1827.1663281250007" y="555.0" width="60.5523046875" height="40" stroke="black" fill="white" stroke-width="1" /><text x="1857.4424804687508" y="575.0" dominant-baseline="middle" text-anchor="middle" font-size="14px" font-family="Arial">Rx(x_1)</text><circle cx="1937.9947851562508" cy="775.0" r="10.0" /><rect x="1907.7186328125008" y="205.0" width="60.5523046875" height="40" stroke="black" fill="white" stroke-width="1" /><text x="1937.9947851562508" y="225.0" dominant-baseline="middle" text-anchor="middle" font-size="14px" font-family="Arial">Rx(x_1)</text><circle cx="2018.162089843751" cy="225.0" r="10.0" /><rect x="1988.2709375000009" y="305.0" width="59.7823046875" height="40" stroke="black" fill="white" stroke-width="1" /><text x="2018.162089843751" y="325.0" dominant-baseline="middle" text-anchor="middle" font-size="14px" font-family="Arial">Ry(x_2)</text><circle cx="2097.944394531251" cy="275.0" r="10.0" /><rect x="2068.053242187501" y="355.0" width="59.7823046875" height="40" stroke="black" fill="white" stroke-width="1" /><text x="2097.944394531251" y="375.0" dominant-baseline="middle" text-anchor="middle" font-size="14px" font-family="Arial">Ry(x_2)</text><circle cx="2177.726699218751" cy="325.0" r="10.0" /><rect x="2147.835546875001" y="405.0" width="59.7823046875" height="40" stroke="black" fill="white" stroke-width="1" /><text x="2177.726699218751" y="425.0" dominant-baseline="middle" text-anchor="middle" font-size="14px" font-family="Arial">Ry(x_2)</text><circle cx="2257.509003906251" cy="375.0" r="10.0" /><rect x="2227.617851562501" y="455.0" width="59.7823046875" height="40" stroke="black" fill="white" stroke-width="1" /><text x="2257.509003906251" y="475.0" dominant-baseline="middle" text-anchor="middle" font-size="14px" font-family="Arial">Ry(x_2)</text><circle cx="2337.291308593751" cy="425.0" r="10.0" /><rect x="2307.400156250001" y="505.0" width="59.7823046875" height="40" stroke="black" fill="white" stroke-width="1" /><text x="2337.291308593751" y="525.0" dominant-baseline="middle" text-anchor="middle" font-size="14px" font-family="Arial">Ry(x_2)</text><circle cx="2417.0736132812513" cy="475.0" r="10.0" /><rect x="2387.182460937501" y="555.0" width="59.7823046875" height="40" stroke="black" fill="white" stroke-width="1" /><text x="2417.0736132812513" y="575.0" dominant-baseline="middle" text-anchor="middle" font-size="14px" font-family="Arial">Ry(x_2)</text><circle cx="2496.8559179687513" cy="525.0" r="10.0" /><rect x="2466.9647656250013" y="205.0" width="59.7823046875" height="40" stroke="black" fill="white" stroke-width="1" /><text x="2496.8559179687513" y="225.0" dominant-baseline="middle" text-anchor="middle" font-size="14px" font-family="Arial">Ry(x_2)</text><circle cx="2576.6382226562514" cy="575.0" r="10.0" /><rect x="2546.7470703125014" y="255.0" width="59.7823046875" height="40" stroke="black" fill="white" stroke-width="1" /><text x="2576.6382226562514" y="275.0" dominant-baseline="middle" text-anchor="middle" font-size="14px" font-family="Arial">Ry(x_2)</text><circle cx="2646.5293750000014" cy="225.0" r="10.0" /><rect x="2626.5293750000014" y="355.0" width="40" height="40" stroke="black" fill="white" stroke-width="1" /><text x="2646.5293750000014" y="375.0" dominant-baseline="middle" text-anchor="middle" font-size="18px" font-family="Arial">X</text><circle cx="2706.5293750000014" cy="275.0" r="10.0" /><rect x="2686.5293750000014" y="405.0" width="40" height="40" stroke="black" fill="white" stroke-width="1" /><text x="2706.5293750000014" y="425.0" dominant-baseline="middle" text-anchor="middle" font-size="18px" font-family="Arial">X</text><circle cx="2766.5293750000014" cy="525.0" r="10.0" /><rect x="2746.5293750000014" y="455.0" width="40" height="40" stroke="black" fill="white" stroke-width="1" /><text x="2766.5293750000014" y="475.0" dominant-baseline="middle" text-anchor="middle" font-size="18px" font-family="Arial">X</text><circle cx="2826.5293750000014" cy="575.0" r="10.0" /><rect x="2806.5293750000014" y="305.0" width="40" height="40" stroke="black" fill="white" stroke-width="1" /><text x="2826.5293750000014" y="325.0" dominant-baseline="middle" text-anchor="middle" font-size="18px" font-family="Arial">X</text><circle cx="2896.3372656250012" cy="325.0" r="10.0" /><rect x="2866.5293750000014" y="405.0" width="59.61578125" height="40" stroke="black" fill="white" stroke-width="1" /><text x="2896.3372656250012" y="425.0" dominant-baseline="middle" text-anchor="middle" font-size="14px" font-family="Arial">Rz(x_3)</text><circle cx="2975.9530468750013" cy="375.0" r="10.0" /><rect x="2946.1451562500015" y="455.0" width="59.61578125" height="40" stroke="black" fill="white" stroke-width="1" /><text x="2975.9530468750013" y="475.0" dominant-baseline="middle" text-anchor="middle" font-size="14px" font-family="Arial">Rz(x_3)</text><circle cx="3055.5688281250013" cy="425.0" r="10.0" /><rect x="3025.7609375000015" y="305.0" width="59.61578125" height="40" stroke="black" fill="white" stroke-width="1" /><text x="3055.5688281250013" y="325.0" dominant-baseline="middle" text-anchor="middle" font-size="14px" font-family="Arial">Rz(x_3)</text><circle cx="3135.1846093750014" cy="475.0" r="10.0" /><rect x="3105.3767187500016" y="355.0" width="59.61578125" height="40" stroke="black" fill="white" stroke-width="1" /><text x="3135.1846093750014" y="375.0" dominant-baseline="middle" text-anchor="middle" font-size="14px" font-family="Arial">Rz(x_3)</text><circle cx="3215.2686523437515" cy="325.0" r="10.0" /><rect x="3184.9925000000017" y="405.0" width="60.5523046875" height="40" stroke="black" fill="white" stroke-width="1" /><text x="3215.2686523437515" y="425.0" dominant-baseline="middle" text-anchor="middle" font-size="14px" font-family="Arial">Rx(x_4)</text><circle cx="3295.8209570312515" cy="475.0" r="10.0" /><rect x="3265.5448046875017" y="355.0" width="60.5523046875" height="40" stroke="black" fill="white" stroke-width="1" /><text x="3295.8209570312515" y="375.0" dominant-baseline="middle" text-anchor="middle" font-size="14px" font-family="Arial">Rx(x_4)</text><circle cx="3375.988261718752" cy="375.0" r="10.0" /><rect x="3346.0971093750018" y="405.0" width="59.7823046875" height="40" stroke="black" fill="white" stroke-width="1" /><text x="3375.988261718752" y="425.0" dominant-baseline="middle" text-anchor="middle" font-size="14px" font-family="Arial">Ry(x_5)</text><circle cx="3445.879414062502" cy="375.0" r="10.0" /><rect x="3425.879414062502" y="405.0" width="40" height="40" stroke="black" fill="white" stroke-width="1" /><text x="3445.879414062502" y="425.0" dominant-baseline="middle" text-anchor="middle" font-size="18px" font-family="Arial">X</text></svg>