<svg xmlns="http://www.w3.org/2000/svg" width="7239.640195312496" height="400.0"><line x1="30.0" x2="7209.640195312496" y1="25.0" y2="25.0" stroke="#1967d2" stroke-width="1" /><line x1="30.0" x2="7209.640195312496" y1="75.0" y2="75.0" stroke="#1967d2" stroke-width="1" /><line x1="30.0" x2="7209.640195312496" y1="125.0" y2="125.0" stroke="#1967d2" stroke-width="1" /><line x1="30.0" x2="7209.640195312496" y1="175.0" y2="175.0" stroke="#1967d2" stroke-width="1" /><line x1="30.0" x2="7209.640195312496" y1="225.0" y2="225.0" stroke="#1967d2" stroke-width="1" /><line x1="30.0" x2="7209.640195312496" y1="275.0" y2="275.0" stroke="#1967d2" stroke-width="1" /><line x1="30.0" x2="7209.640195312496" y1="325.0" y2="325.0" stroke="#1967d2" stroke-width="1" /><line x1="30.0" x2="7209.640195312496" y1="375.0" y2="375.0" stroke="#1967d2" stroke-width="1" /><line x1="169.61578125" x2="169.61578125" y1="25.0" y2="75.0" stroke="black" stroke-width="3" /><line x1="309.3980859375" x2="309.3980859375" y1="25.0" y2="75.0" stroke="black" stroke-width="3" /><line x1="449.18039062500003" x2="449.18039062500003" y1="25.0" y2="75.0" stroke="black" stroke-width="3" /><line x1="668.4119531250001" x2="668.4119531250001" y1="75.0" y2="125.0" stroke="black" stroke-width="3" /><line x1="808.1942578125" x2="808.1942578125" y1="75.0" y2="125.0" stroke="black" stroke-width="3" /><line x1="947.9765625" x2="947.9765625" y1="75.0" y2="125.0" stroke="black" stroke-width="3" /><line x1="1167.208125" x2="1167.208125" y1="125.0" y2="175.0" stroke="black" stroke-width="3" /><line x1="1306.9904296875002" x2="1306.9904296875002" y1="125.0" y2="175.0" stroke="black" stroke-width="3" /><line x1="1446.7727343750003" x2="1446.7727343750003" y1="125.0" y2="175.0" stroke="black" stroke-width="3" /><line x1="1666.0042968750004" x2="1666.0042968750004" y1="175.0" y2="225.0" stroke="black" stroke-width="3" /><line x1="1805.7866015625004" x2="1805.7866015625004" y1="175.0" y2="225.0" stroke="black" stroke-width="3" /><line x1="1945.5689062500005" x2="1945.5689062500005" y1="175.0" y2="225.0" stroke="black" stroke-width="3" /><line x1="2164.8004687500006" x2="2164.8004687500006" y1="225.0" y2="275.0" stroke="black" stroke-width="3" /><line x1="2304.5827734375007" x2="2304.5827734375007" y1="225.0" y2="275.0" stroke="black" stroke-width="3" /><line x1="2444.3650781250008" x2="2444.3650781250008" y1="225.0" y2="275.0" stroke="black" stroke-width="3" /><line x1="2663.596640625001" x2="2663.596640625001" y1="275.0" y2="325.0" stroke="black" stroke-width="3" /><line x1="2803.378945312501" x2="2803.378945312501" y1="275.0" y2="325.0" stroke="black" stroke-width="3" /><line x1="2943.161250000001" x2="2943.161250000001" y1="275.0" y2="325.0" stroke="black" stroke-width="3" /><line x1="3162.392812500001" x2="3162.392812500001" y1="325.0" y2="375.0" stroke="black" stroke-width="3" /><line x1="3302.175117187501" x2="3302.175117187501" y1="325.0" y2="375.0" stroke="black" stroke-width="3" /><line x1="3441.9574218750013" x2="3441.9574218750013" y1="325.0" y2="375.0" stroke="black" stroke-width="3" /><line x1="3661.1889843750014" x2="3661.1889843750014" y1="25.0" y2="375.0" stroke="black" stroke-width="3" /><line x1="3800.9712890625015" x2="3800.9712890625015" y1="25.0" y2="375.0" stroke="black" stroke-width="3" /><line x1="3940.7535937500015" x2="3940.7535937500015" y1="25.0" y2="375.0" stroke="black" stroke-width="3" /><line x1="4090.1772656250014" x2="4090.1772656250014" y1="25.0" y2="375.0" stroke="black" stroke-width="3" /><line x1="4169.793046875002" x2="4169.793046875002" y1="75.0" y2="325.0" stroke="black" stroke-width="3" /><line x1="4249.4088281250015" x2="4249.4088281250015" y1="125.0" y2="275.0" stroke="black" stroke-width="3" /><line x1="4329.024609375001" x2="4329.024609375001" y1="175.0" y2="225.0" stroke="black" stroke-width="3" /><line x1="4478.44828125" x2="4478.44828125" y1="25.0" y2="75.0" stroke="black" stroke-width="3" /><line x1="4618.2305859375" x2="4618.2305859375" y1="25.0" y2="75.0" stroke="black" stroke-width="3" /><line x1="4758.012890625" x2="4758.012890625" y1="25.0" y2="75.0" stroke="black" stroke-width="3" /><line x1="4986.151679687499" x2="4986.151679687499" y1="75.0" y2="125.0" stroke="black" stroke-width="3" /><line x1="5125.933984374999" x2="5125.933984374999" y1="75.0" y2="125.0" stroke="black" stroke-width="3" /><line x1="5265.7162890624995" x2="5265.7162890624995" y1="75.0" y2="125.0" stroke="black" stroke-width="3" /><line x1="5493.855078124999" x2="5493.855078124999" y1="125.0" y2="175.0" stroke="black" stroke-width="3" /><line x1="5633.637382812499" x2="5633.637382812499" y1="125.0" y2="175.0" stroke="black" stroke-width="3" /><line x1="5773.419687499999" x2="5773.419687499999" y1="125.0" y2="175.0" stroke="black" stroke-width="3" /><line x1="6001.558476562498" x2="6001.558476562498" y1="25.0" y2="175.0" stroke="black" stroke-width="3" /><line x1="6141.340781249998" x2="6141.340781249998" y1="25.0" y2="175.0" stroke="black" stroke-width="3" /><line x1="6281.123085937498" x2="6281.123085937498" y1="25.0" y2="175.0" stroke="black" stroke-width="3" /><line x1="6443.907597656248" x2="6443.907597656248" y1="25.0" y2="175.0" stroke="black" stroke-width="3" /><line x1="6532.430605468748" x2="6532.430605468748" y1="75.0" y2="125.0" stroke="black" stroke-width="3" /><line x1="6695.215117187497" x2="6695.215117187497" y1="25.0" y2="75.0" stroke="black" stroke-width="3" /><line x1="6843.904648437497" x2="6843.904648437497" y1="25.0" y2="75.0" stroke="black" stroke-width="3" /><line x1="6992.594179687497" x2="6992.594179687497" y1="25.0" y2="75.0" stroke="black" stroke-width="3" /><line x1="7155.378691406247" x2="7155.378691406247" y1="25.0" y2="75.0" stroke="black" stroke-width="3" /><rect x="10.0" y="5.0" width="40" height="40" stroke="black" fill="white" stroke-width="0" /><text x="30.0" y="25.0" dominant-baseline="middle" text-anchor="middle" font-size="14px" font-family="Arial">1: </text><rect x="10.0" y="55.0" width="40" height="40" stroke="black" fill="white" stroke-width="0" /><text x="30.0" y="75.0" dominant-baseline="middle" text-anchor="middle" font-size="14px" font-family="Arial">2: </text><rect x="10.0" y="105.0" width="40" height="40" stroke="black" fill="white" stroke-width="0" /><text x="30.0" y="125.0" dominant-baseline="middle" text-anchor="middle" font-size="14px" font-family="Arial">3: </text><rect x="10.0" y="155.0" width="40" height="40" stroke="black" fill="white" stroke-width="0" /><text x="30.0" y="175.0" dominant-baseline="middle" text-anchor="middle" font-size="14px" font-family="Arial">4: </text><rect x="10.0" y="205.0" width="40" height="40" stroke="black" fill="white" stroke-width="0" /><text x="30.0" y="225.0" dominant-baseline="middle" text-anchor="middle" font-size="14px" font-family="Arial">5: </text><rect x="10.0" y="255.0" width="40" height="40" stroke="black" fill="white" stroke-width="0" /><text x="30.0" y="275.0" dominant-baseline="middle" text-anchor="middle" font-size="14px" font-family="Arial">6: </text><rect x="10.0" y="305.0" width="40" height="40" stroke="black" fill="white" stroke-width="0" /><text x="30.0" y="325.0" dominant-baseline="middle" text-anchor="middle" font-size="14px" font-family="Arial">7: </text><rect x="10.0" y="355.0" width="40" height="40" stroke="black" fill="white" stroke-width="0" /><text x="30.0" y="375.0" dominant-baseline="middle" text-anchor="middle" font-size="14px" font-family="Arial">8: </text><rect x="70.0" y="55.0" width="59.61578125" height="40" stroke="black" fill="white" stroke-width="1" /><text x="99.807890625" y="75.0" dominant-baseline="middle" text-anchor="middle" font-size="14px" font-family="Arial">Rz(x_0)</text><circle cx="169.61578125" cy="75.0" r="10.0" /><rect x="149.61578125" y="5.0" width="40" height="40" stroke="black" fill="white" stroke-width="1" /><text x="169.61578125" y="25.0" dominant-baseline="middle" text-anchor="middle" font-size="18px" font-family="Arial">X</text><rect x="209.61578125" y="5.0" width="59.7823046875" height="40" stroke="black" fill="white" stroke-width="1" /><text x="239.50693359375" y="25.0" dominant-baseline="middle" text-anchor="middle" font-size="14px" font-family="Arial">Rz(x_1)</text><rect x="209.61578125" y="55.0" width="59.7823046875" height="40" stroke="black" fill="white" stroke-width="1" /><text x="239.50693359375" y="75.0" dominant-baseline="middle" text-anchor="middle" font-size="14px" font-family="Arial">Ry(x_2)</text><circle cx="309.3980859375" cy="25.0" r="10.0" /><rect x="289.3980859375" y="55.0" width="40" height="40" stroke="black" fill="white" stroke-width="1" /><text x="309.3980859375" y="75.0" dominant-baseline="middle" text-anchor="middle" font-size="18px" font-family="Arial">X</text><rect x="349.3980859375" y="55.0" width="59.7823046875" height="40" stroke="black" fill="white" stroke-width="1" /><text x="379.28923828125" y="75.0" dominant-baseline="middle" text-anchor="middle" font-size="14px" font-family="Arial">Ry(x_3)</text><circle cx="449.18039062500003" cy="75.0" r="10.0" /><rect x="429.18039062500003" y="5.0" width="40" height="40" stroke="black" fill="white" stroke-width="1" /><text x="449.18039062500003" y="25.0" dominant-baseline="middle" text-anchor="middle" font-size="18px" font-family="Arial">X</text><rect x="489.180390625" y="5.0" width="59.61578125" height="40" stroke="black" fill="white" stroke-width="1" /><text x="518.98828125" y="25.0" dominant-baseline="middle" text-anchor="middle" font-size="14px" font-family="Arial">Rz(x_4)</text><rect x="568.796171875" y="105.0" width="59.61578125" height="40" stroke="black" fill="white" stroke-width="1" /><text x="598.6040625" y="125.0" dominant-baseline="middle" text-anchor="middle" font-size="14px" font-family="Arial">Rz(x_0)</text><circle cx="668.4119531250001" cy="125.0" r="10.0" /><rect x="648.4119531250001" y="55.0" width="40" height="40" stroke="black" fill="white" stroke-width="1" /><text x="668.4119531250001" y="75.0" dominant-baseline="middle" text-anchor="middle" font-size="18px" font-family="Arial">X</text><rect x="708.4119531250001" y="55.0" width="59.7823046875" height="40" stroke="black" fill="white" stroke-width="1" /><text x="738.3031054687501" y="75.0" dominant-baseline="middle" text-anchor="middle" font-size="14px" font-family="Arial">Rz(x_1)</text><rect x="708.4119531250001" y="105.0" width="59.7823046875" height="40" stroke="black" fill="white" stroke-width="1" /><text x="738.3031054687501" y="125.0" dominant-baseline="middle" text-anchor="middle" font-size="14px" font-family="Arial">Ry(x_2)</text><circle cx="808.1942578125" cy="75.0" r="10.0" /><rect x="788.1942578125" y="105.0" width="40" height="40" stroke="black" fill="white" stroke-width="1" /><text x="808.1942578125" y="125.0" dominant-baseline="middle" text-anchor="middle" font-size="18px" font-family="Arial">X</text><rect x="848.1942578125" y="105.0" width="59.7823046875" height="40" stroke="black" fill="white" stroke-width="1" /><text x="878.0854101562501" y="125.0" dominant-baseline="middle" text-anchor="middle" font-size="14px" font-family="Arial">Ry(x_3)</text><circle cx="947.9765625" cy="125.0" r="10.0" /><rect x="927.9765625" y="55.0" width="40" height="40" stroke="black" fill="white" stroke-width="1" /><text x="947.9765625" y="75.0" dominant-baseline="middle" text-anchor="middle" font-size="18px" font-family="Arial">X</text><rect x="987.9765625" y="55.0" width="59.61578125" height="40" stroke="black" fill="white" stroke-width="1" /><text x="1017.784453125" y="75.0" dominant-baseline="middle" text-anchor="middle" font-size="14px" font-family="Arial">Rz(x_4)</text><rect x="1067.59234375" y="155.0" width="59.61578125" height="40" stroke="black" fill="white" stroke-width="1" /><text x="1097.400234375" y="175.0" dominant-baseline="middle" text-anchor="middle" font-size="14px" font-family="Arial">Rz(x_0)</text><circle cx="1167.208125" cy="175.0" r="10.0" /><rect x="1147.208125" y="105.0" width="40" height="40" stroke="black" fill="white" stroke-width="1" /><text x="1167.208125" y="125.0" dominant-baseline="middle" text-anchor="middle" font-size="18px" font-family="Arial">X</text><rect x="1207.208125" y="105.0" width="59.7823046875" height="40" stroke="black" fill="white" stroke-width="1" /><text x="1237.0992773437501" y="125.0" dominant-baseline="middle" text-anchor="middle" font-size="14px" font-family="Arial">Rz(x_1)</text><rect x="1207.208125" y="155.0" width="59.7823046875" height="40" stroke="black" fill="white" stroke-width="1" /><text x="1237.0992773437501" y="175.0" dominant-baseline="middle" text-anchor="middle" font-size="14px" font-family="Arial">Ry(x_2)</text><circle cx="1306.9904296875002" cy="125.0" r="10.0" /><rect x="1286.9904296875002" y="155.0" width="40" height="40" stroke="black" fill="white" stroke-width="1" /><text x="1306.9904296875002" y="175.0" dominant-baseline="middle" text-anchor="middle" font-size="18px" font-family="Arial">X</text><rect x="1346.9904296875002" y="155.0" width="59.7823046875" height="40" stroke="black" fill="white" stroke-width="1" /><text x="1376.8815820312502" y="175.0" dominant-baseline="middle" text-anchor="middle" font-size="14px" font-family="Arial">Ry(x_3)</text><circle cx="1446.7727343750003" cy="175.0" r="10.0" /><rect x="1426.7727343750003" y="105.0" width="40" height="40" stroke="black" fill="white" stroke-width="1" /><text x="1446.7727343750003" y="125.0" dominant-baseline="middle" text-anchor="middle" font-size="18px" font-family="Arial">X</text><rect x="1486.7727343750003" y="105.0" width="59.61578125" height="40" stroke="black" fill="white" stroke-width="1" /><text x="1516.5806250000003" y="125.0" dominant-baseline="middle" text-anchor="middle" font-size="14px" font-family="Arial">Rz(x_4)</text><rect x="1566.3885156250003" y="205.0" width="59.61578125" height="40" stroke="black" fill="white" stroke-width="1" /><text x="1596.1964062500003" y="225.0" dominant-baseline="middle" text-anchor="middle" font-size="14px" font-family="Arial">Rz(x_0)</text><circle cx="1666.0042968750004" cy="225.0" r="10.0" /><rect x="1646.0042968750004" y="155.0" width="40" height="40" stroke="black" fill="white" stroke-width="1" /><text x="1666.0042968750004" y="175.0" dominant-baseline="middle" text-anchor="middle" font-size="18px" font-family="Arial">X</text><rect x="1706.0042968750004" y="155.0" width="59.7823046875" height="40" stroke="black" fill="white" stroke-width="1" /><text x="1735.8954492187504" y="175.0" dominant-baseline="middle" text-anchor="middle" font-size="14px" font-family="Arial">Rz(x_1)</text><rect x="1706.0042968750004" y="205.0" width="59.7823046875" height="40" stroke="black" fill="white" stroke-width="1" /><text x="1735.8954492187504" y="225.0" dominant-baseline="middle" text-anchor="middle" font-size="14px" font-family="Arial">Ry(x_2)</text><circle cx="1805.7866015625004" cy="175.0" r="10.0" /><rect x="1785.7866015625004" y="205.0" width="40" height="40" stroke="black" fill="white" stroke-width="1" /><text x="1805.7866015625004" y="225.0" dominant-baseline="middle" text-anchor="middle" font-size="18px" font-family="Arial">X</text><rect x="1845.7866015625004" y="205.0" width="59.7823046875" height="40" stroke="black" fill="white" stroke-width="1" /><text x="1875.6777539062505" y="225.0" dominant-baseline="middle" text-anchor="middle" font-size="14px" font-family="Arial">Ry(x_3)</text><circle cx="1945.5689062500005" cy="225.0" r="10.0" /><rect x="1925.5689062500005" y="155.0" width="40" height="40" stroke="black" fill="white" stroke-width="1" /><text x="1945.5689062500005" y="175.0" dominant-baseline="middle" text-anchor="middle" font-size="18px" font-family="Arial">X</text><rect x="1985.5689062500005" y="155.0" width="59.61578125" height="40" stroke="black" fill="white" stroke-width="1" /><text x="2015.3767968750005" y="175.0" dominant-baseline="middle" text-anchor="middle" font-size="14px" font-family="Arial">Rz(x_4)</text><rect x="2065.1846875000006" y="255.0" width="59.61578125" height="40" stroke="black" fill="white" stroke-width="1" /><text x="2094.9925781250004" y="275.0" dominant-baseline="middle" text-anchor="middle" font-size="14px" font-family="Arial">Rz(x_0)</text><circle cx="2164.8004687500006" cy="275.0" r="10.0" /><rect x="2144.8004687500006" y="205.0" width="40" height="40" stroke="black" fill="white" stroke-width="1" /><text x="2164.8004687500006" y="225.0" dominant-baseline="middle" text-anchor="middle" font-size="18px" font-family="Arial">X</text><rect x="2204.8004687500006" y="205.0" width="59.7823046875" height="40" stroke="black" fill="white" stroke-width="1" /><text x="2234.6916210937507" y="225.0" dominant-baseline="middle" text-anchor="middle" font-size="14px" font-family="Arial">Rz(x_1)</text><rect x="2204.8004687500006" y="255.0" width="59.7823046875" height="40" stroke="black" fill="white" stroke-width="1" /><text x="2234.6916210937507" y="275.0" dominant-baseline="middle" text-anchor="middle" font-size="14px" font-family="Arial">Ry(x_2)</text><circle cx="2304.5827734375007" cy="225.0" r="10.0" /><rect x="2284.5827734375007" y="255.0" width="40" height="40" stroke="black" fill="white" stroke-width="1" /><text x="2304.5827734375007" y="275.0" dominant-baseline="middle" text-anchor="middle" font-size="18px" font-family="Arial">X</text><rect x="2344.5827734375007" y="255.0" width="59.7823046875" height="40" stroke="black" fill="white" stroke-width="1" /><text x="2374.4739257812507" y="275.0" dominant-baseline="middle" text-anchor="middle" font-size="14px" font-family="Arial">Ry(x_3)</text><circle cx="2444.3650781250008" cy="275.0" r="10.0" /><rect x="2424.3650781250008" y="205.0" width="40" height="40" stroke="black" fill="white" stroke-width="1" /><text x="2444.3650781250008" y="225.0" dominant-baseline="middle" text-anchor="middle" font-size="18px" font-family="Arial">X</text><rect x="2484.3650781250008" y="205.0" width="59.61578125" height="40" stroke="black" fill="white" stroke-width="1" /><text x="2514.1729687500006" y="225.0" dominant-baseline="middle" text-anchor="middle" font-size="14px" font-family="Arial">Rz(x_4)</text><rect x="2563.980859375001" y="305.0" width="59.61578125" height="40" stroke="black" fill="white" stroke-width="1" /><text x="2593.7887500000006" y="325.0" dominant-baseline="middle" text-anchor="middle" font-size="14px" font-family="Arial">Rz(x_0)</text><circle cx="2663.596640625001" cy="325.0" r="10.0" /><rect x="2643.596640625001" y="255.0" width="40" height="40" stroke="black" fill="white" stroke-width="1" /><text x="2663.596640625001" y="275.0" dominant-baseline="middle" text-anchor="middle" font-size="18px" font-family="Arial">X</text><rect x="2703.596640625001" y="255.0" width="59.7823046875" height="40" stroke="black" fill="white" stroke-width="1" /><text x="2733.487792968751" y="275.0" dominant-baseline="middle" text-anchor="middle" font-size="14px" font-family="Arial">Rz(x_1)</text><rect x="2703.596640625001" y="305.0" width="59.7823046875" height="40" stroke="black" fill="white" stroke-width="1" /><text x="2733.487792968751" y="325.0" dominant-baseline="middle" text-anchor="middle" font-size="14px" font-family="Arial">Ry(x_2)</text><circle cx="2803.378945312501" cy="275.0" r="10.0" /><rect x="2783.378945312501" y="305.0" width="40" height="40" stroke="black" fill="white" stroke-width="1" /><text x="2803.378945312501" y="325.0" dominant-baseline="middle" text-anchor="middle" font-size="18px" font-family="Arial">X</text><rect x="2843.378945312501" y="305.0" width="59.7823046875" height="40" stroke="black" fill="white" stroke-width="1" /><text x="2873.270097656251" y="325.0" dominant-baseline="middle" text-anchor="middle" font-size="14px" font-family="Arial">Ry(x_3)</text><circle cx="2943.161250000001" cy="325.0" r="10.0" /><rect x="2923.161250000001" y="255.0" width="40" height="40" stroke="black" fill="white" stroke-width="1" /><text x="2943.161250000001" y="275.0" dominant-baseline="middle" text-anchor="middle" font-size="18px" font-family="Arial">X</text><rect x="2983.161250000001" y="255.0" width="59.61578125" height="40" stroke="black" fill="white" stroke-width="1" /><text x="3012.969140625001" y="275.0" dominant-baseline="middle" text-anchor="middle" font-size="14px" font-family="Arial">Rz(x_4)</text><rect x="3062.777031250001" y="355.0" width="59.61578125" height="40" stroke="black" fill="white" stroke-width="1" /><text x="3092.584921875001" y="375.0" dominant-baseline="middle" text-anchor="middle" font-size="14px" font-family="Arial">Rz(x_0)</text><circle cx="3162.392812500001" cy="375.0" r="10.0" /><rect x="3142.392812500001" y="305.0" width="40" height="40" stroke="black" fill="white" stroke-width="1" /><text x="3162.392812500001" y="325.0" dominant-baseline="middle" text-anchor="middle" font-size="18px" font-family="Arial">X</text><rect x="3202.392812500001" y="305.0" width="59.7823046875" height="40" stroke="black" fill="white" stroke-width="1" /><text x="3232.283964843751" y="325.0" dominant-baseline="middle" text-anchor="middle" font-size="14px" font-family="Arial">Rz(x_1)</text><rect x="3202.392812500001" y="355.0" width="59.7823046875" height="40" stroke="black" fill="white" stroke-width="1" /><text x="3232.283964843751" y="375.0" dominant-baseline="middle" text-anchor="middle" font-size="14px" font-family="Arial">Ry(x_2)</text><circle cx="3302.175117187501" cy="325.0" r="10.0" /><rect x="3282.175117187501" y="355.0" width="40" height="40" stroke="black" fill="white" stroke-width="1" /><text x="3302.175117187501" y="375.0" dominant-baseline="middle" text-anchor="middle" font-size="18px" font-family="Arial">X</text><rect x="3342.175117187501" y="355.0" width="59.7823046875" height="40" stroke="black" fill="white" stroke-width="1" /><text x="3372.0662695312512" y="375.0" dominant-baseline="middle" text-anchor="middle" font-size="14px" font-family="Arial">Ry(x_3)</text><circle cx="3441.9574218750013" cy="375.0" r="10.0" /><rect x="3421.9574218750013" y="305.0" width="40" height="40" stroke="black" fill="white" stroke-width="1" /><text x="3441.9574218750013" y="325.0" dominant-baseline="middle" text-anchor="middle" font-size="18px" font-family="Arial">X</text><rect x="3481.9574218750013" y="305.0" width="59.61578125" height="40" stroke="black" fill="white" stroke-width="1" /><text x="3511.765312500001" y="325.0" dominant-baseline="middle" text-anchor="middle" font-size="14px" font-family="Arial">Rz(x_4)</text><rect x="3561.5732031250013" y="5.0" width="59.61578125" height="40" stroke="black" fill="white" stroke-width="1" /><text x="3591.381093750001" y="25.0" dominant-baseline="middle" text-anchor="middle" font-size="14px" font-family="Arial">Rz(x_0)</text><circle cx="3661.1889843750014" cy="25.0" r="10.0" /><rect x="3641.1889843750014" y="355.0" width="40" height="40" stroke="black" fill="white" stroke-width="1" /><text x="3661.1889843750014" y="375.0" dominant-baseline="middle" text-anchor="middle" font-size="18px" font-family="Arial">X</text><rect x="3701.1889843750014" y="355.0" width="59.7823046875" height="40" stroke="black" fill="white" stroke-width="1" /><text x="3731.0801367187514" y="375.0" dominant-baseline="middle" text-anchor="middle" font-size="14px" font-family="Arial">Rz(x_1)</text><rect x="3701.1889843750014" y="5.0" width="59.7823046875" height="40" stroke="black" fill="white" stroke-width="1" /><text x="3731.0801367187514" y="25.0" dominant-baseline="middle" text-anchor="middle" font-size="14px" font-family="Arial">Ry(x_2)</text><circle cx="3800.9712890625015" cy="375.0" r="10.0" /><rect x="3780.9712890625015" y="5.0" width="40" height="40" stroke="black" fill="white" stroke-width="1" /><text x="3800.9712890625015" y="25.0" dominant-baseline="middle" text-anchor="middle" font-size="18px" font-family="Arial">X</text><rect x="3840.9712890625015" y="5.0" width="59.7823046875" height="40" stroke="black" fill="white" stroke-width="1" /><text x="3870.8624414062515" y="25.0" dominant-baseline="middle" text-anchor="middle" font-size="14px" font-family="Arial">Ry(x_3)</text><circle cx="3940.7535937500015" cy="25.0" r="10.0" /><rect x="3920.7535937500015" y="355.0" width="40" height="40" stroke="black" fill="white" stroke-width="1" /><text x="3940.7535937500015" y="375.0" dominant-baseline="middle" text-anchor="middle" font-size="18px" font-family="Arial">X</text><rect x="3980.7535937500015" y="355.0" width="59.61578125" height="40" stroke="black" fill="white" stroke-width="1" /><text x="4010.5614843750013" y="375.0" dominant-baseline="middle" text-anchor="middle" font-size="14px" font-family="Arial">Rz(x_4)</text><circle cx="4090.1772656250014" cy="375.0" r="10.0" /><rect x="4060.3693750000016" y="5.0" width="59.61578125" height="40" stroke="black" fill="white" stroke-width="1" /><text x="4090.1772656250014" y="25.0" dominant-baseline="middle" text-anchor="middle" font-size="14px" font-family="Arial">Rz(x_5)</text><circle cx="4169.793046875002" cy="325.0" r="10.0" /><rect x="4139.985156250002" y="55.0" width="59.61578125" height="40" stroke="black" fill="white" stroke-width="1" /><text x="4169.793046875002" y="75.0" dominant-baseline="middle" text-anchor="middle" font-size="14px" font-family="Arial">Rz(x_5)</text><circle cx="4249.4088281250015" cy="275.0" r="10.0" /><rect x="4219.600937500001" y="105.0" width="59.61578125" height="40" stroke="black" fill="white" stroke-width="1" /><text x="4249.4088281250015" y="125.0" dominant-baseline="middle" text-anchor="middle" font-size="14px" font-family="Arial">Rz(x_5)</text><circle cx="4329.024609375001" cy="225.0" r="10.0" /><rect x="4299.216718750001" y="155.0" width="59.61578125" height="40" stroke="black" fill="white" stroke-width="1" /><text x="4329.024609375001" y="175.0" dominant-baseline="middle" text-anchor="middle" font-size="14px" font-family="Arial">Rz(x_5)</text><rect x="4378.8325" y="55.0" width="59.61578125" height="40" stroke="black" fill="white" stroke-width="1" /><text x="4408.640390625001" y="75.0" dominant-baseline="middle" text-anchor="middle" font-size="14px" font-family="Arial">Rz(x_6)</text><circle cx="4478.44828125" cy="75.0" r="10.0" /><rect x="4458.44828125" y="5.0" width="40" height="40" stroke="black" fill="white" stroke-width="1" /><text x="4478.44828125" y="25.0" dominant-baseline="middle" text-anchor="middle" font-size="18px" font-family="Arial">X</text><rect x="4518.44828125" y="5.0" width="59.7823046875" height="40" stroke="black" fill="white" stroke-width="1" /><text x="4548.33943359375" y="25.0" dominant-baseline="middle" text-anchor="middle" font-size="14px" font-family="Arial">Rz(x_7)</text><rect x="4518.44828125" y="55.0" width="59.7823046875" height="40" stroke="black" fill="white" stroke-width="1" /><text x="4548.33943359375" y="75.0" dominant-baseline="middle" text-anchor="middle" font-size="14px" font-family="Arial">Ry(x_8)</text><circle cx="4618.2305859375" cy="25.0" r="10.0" /><rect x="4598.2305859375" y="55.0" width="40" height="40" stroke="black" fill="white" stroke-width="1" /><text x="4618.2305859375" y="75.0" dominant-baseline="middle" text-anchor="middle" font-size="18px" font-family="Arial">X</text><rect x="4658.2305859375" y="55.0" width="59.7823046875" height="40" stroke="black" fill="white" stroke-width="1" /><text x="4688.12173828125" y="75.0" dominant-baseline="middle" text-anchor="middle" font-size="14px" font-family="Arial">Ry(x_9)</text><circle cx="4758.012890625" cy="75.0" r="10.0" /><rect x="4738.012890625" y="5.0" width="40" height="40" stroke="black" fill="white" stroke-width="1" /><text x="4758.012890625" y="25.0" dominant-baseline="middle" text-anchor="middle" font-size="18px" font-family="Arial">X</text><rect x="4798.012890625" y="5.0" width="68.5230078125" height="40" stroke="black" fill="white" stroke-width="1" /><text x="4832.27439453125" y="25.0" dominant-baseline="middle" text-anchor="middle" font-size="14px" font-family="Arial">Rz(x_10)</text><rect x="4886.5358984375" y="105.0" width="59.61578125" height="40" stroke="black" fill="white" stroke-width="1" /><text x="4916.3437890625" y="125.0" dominant-baseline="middle" text-anchor="middle" font-size="14px" font-family="Arial">Rz(x_6)</text><circle cx="4986.151679687499" cy="125.0" r="10.0" /><rect x="4966.151679687499" y="55.0" width="40" height="40" stroke="black" fill="white" stroke-width="1" /><text x="4986.151679687499" y="75.0" dominant-baseline="middle" text-anchor="middle" font-size="18px" font-family="Arial">X</text><rect x="5026.151679687499" y="55.0" width="59.7823046875" height="40" stroke="black" fill="white" stroke-width="1" /><text x="5056.042832031249" y="75.0" dominant-baseline="middle" text-anchor="middle" font-size="14px" font-family="Arial">Rz(x_7)</text><rect x="5026.151679687499" y="105.0" width="59.7823046875" height="40" stroke="black" fill="white" stroke-width="1" /><text x="5056.042832031249" y="125.0" dominant-baseline="middle" text-anchor="middle" font-size="14px" font-family="Arial">Ry(x_8)</text><circle cx="5125.933984374999" cy="75.0" r="10.0" /><rect x="5105.933984374999" y="105.0" width="40" height="40" stroke="black" fill="white" stroke-width="1" /><text x="5125.933984374999" y="125.0" dominant-baseline="middle" text-anchor="middle" font-size="18px" font-family="Arial">X</text><rect x="5165.933984374999" y="105.0" width="59.7823046875" height="40" stroke="black" fill="white" stroke-width="1" /><text x="5195.8251367187495" y="125.0" dominant-baseline="middle" text-anchor="middle" font-size="14px" font-family="Arial">Ry(x_9)</text><circle cx="5265.7162890624995" cy="125.0" r="10.0" /><rect x="5245.7162890624995" y="55.0" width="40" height="40" stroke="black" fill="white" stroke-width="1" /><text x="5265.7162890624995" y="75.0" dominant-baseline="middle" text-anchor="middle" font-size="18px" font-family="Arial">X</text><rect x="5305.7162890624995" y="55.0" width="68.5230078125" height="40" stroke="black" fill="white" stroke-width="1" /><text x="5339.97779296875" y="75.0" dominant-baseline="middle" text-anchor="middle" font-size="14px" font-family="Arial">Rz(x_10)</text><rect x="5394.239296874999" y="155.0" width="59.61578125" height="40" stroke="black" fill="white" stroke-width="1" /><text x="5424.047187499999" y="175.0" dominant-baseline="middle" text-anchor="middle" font-size="14px" font-family="Arial">Rz(x_6)</text><circle cx="5493.855078124999" cy="175.0" r="10.0" /><rect x="5473.855078124999" y="105.0" width="40" height="40" stroke="black" fill="white" stroke-width="1" /><text x="5493.855078124999" y="125.0" dominant-baseline="middle" text-anchor="middle" font-size="18px" font-family="Arial">X</text><rect x="5533.855078124999" y="105.0" width="59.7823046875" height="40" stroke="black" fill="white" stroke-width="1" /><text x="5563.746230468749" y="125.0" dominant-baseline="middle" text-anchor="middle" font-size="14px" font-family="Arial">Rz(x_7)</text><rect x="5533.855078124999" y="155.0" width="59.7823046875" height="40" stroke="black" fill="white" stroke-width="1" /><text x="5563.746230468749" y="175.0" dominant-baseline="middle" text-anchor="middle" font-size="14px" font-family="Arial">Ry(x_8)</text><circle cx="5633.637382812499" cy="125.0" r="10.0" /><rect x="5613.637382812499" y="155.0" width="40" height="40" stroke="black" fill="white" stroke-width="1" /><text x="5633.637382812499" y="175.0" dominant-baseline="middle" text-anchor="middle" font-size="18px" font-family="Arial">X</text><rect x="5673.637382812499" y="155.0" width="59.7823046875" height="40" stroke="black" fill="white" stroke-width="1" /><text x="5703.528535156249" y="175.0" dominant-baseline="middle" text-anchor="middle" font-size="14px" font-family="Arial">Ry(x_9)</text><circle cx="5773.419687499999" cy="175.0" r="10.0" /><rect x="5753.419687499999" y="105.0" width="40" height="40" stroke="black" fill="white" stroke-width="1" /><text x="5773.419687499999" y="125.0" dominant-baseline="middle" text-anchor="middle" font-size="18px" font-family="Arial">X</text><rect x="5813.419687499999" y="105.0" width="68.5230078125" height="40" stroke="black" fill="white" stroke-width="1" /><text x="5847.681191406249" y="125.0" dominant-baseline="middle" text-anchor="middle" font-size="14px" font-family="Arial">Rz(x_10)</text><rect x="5901.9426953124985" y="5.0" width="59.61578125" height="40" stroke="black" fill="white" stroke-width="1" /><text x="5931.750585937499" y="25.0" dominant-baseline="middle" text-anchor="middle" font-size="14px" font-family="Arial">Rz(x_6)</text><circle cx="6001.558476562498" cy="25.0" r="10.0" /><rect x="5981.558476562498" y="155.0" width="40" height="40" stroke="black" fill="white" stroke-width="1" /><text x="6001.558476562498" y="175.0" dominant-baseline="middle" text-anchor="middle" font-size="18px" font-family="Arial">X</text><rect x="6041.558476562498" y="155.0" width="59.7823046875" height="40" stroke="black" fill="white" stroke-width="1" /><text x="6071.449628906248" y="175.0" dominant-baseline="middle" text-anchor="middle" font-size="14px" font-family="Arial">Rz(x_7)</text><rect x="6041.558476562498" y="5.0" width="59.7823046875" height="40" stroke="black" fill="white" stroke-width="1" /><text x="6071.449628906248" y="25.0" dominant-baseline="middle" text-anchor="middle" font-size="14px" font-family="Arial">Ry(x_8)</text><circle cx="6141.340781249998" cy="175.0" r="10.0" /><rect x="6121.340781249998" y="5.0" width="40" height="40" stroke="black" fill="white" stroke-width="1" /><text x="6141.340781249998" y="25.0" dominant-baseline="middle" text-anchor="middle" font-size="18px" font-family="Arial">X</text><rect x="6181.340781249998" y="5.0" width="59.7823046875" height="40" stroke="black" fill="white" stroke-width="1" /><text x="6211.231933593748" y="25.0" dominant-baseline="middle" text-anchor="middle" font-size="14px" font-family="Arial">Ry(x_9)</text><circle cx="6281.123085937498" cy="25.0" r="10.0" /><rect x="6261.123085937498" y="155.0" width="40" height="40" stroke="black" fill="white" stroke-width="1" /><text x="6281.123085937498" y="175.0" dominant-baseline="middle" text-anchor="middle" font-size="18px" font-family="Arial">X</text><rect x="6321.123085937498" y="155.0" width="68.5230078125" height="40" stroke="black" fill="white" stroke-width="1" /><text x="6355.3845898437485" y="175.0" dominant-baseline="middle" text-anchor="middle" font-size="14px" font-family="Arial">Rz(x_10)</text><circle cx="6443.907597656248" cy="175.0" r="10.0" /><rect x="6409.646093749998" y="5.0" width="68.5230078125" height="40" stroke="black" fill="white" stroke-width="1" /><text x="6443.907597656248" y="25.0" dominant-baseline="middle" text-anchor="middle" font-size="14px" font-family="Arial">Rz(x_11)</text><circle cx="6532.430605468748" cy="125.0" r="10.0" /><rect x="6498.169101562497" y="55.0" width="68.5230078125" height="40" stroke="black" fill="white" stroke-width="1" /><text x="6532.430605468748" y="75.0" dominant-baseline="middle" text-anchor="middle" font-size="14px" font-family="Arial">Rz(x_11)</text><rect x="6586.692109374997" y="55.0" width="68.5230078125" height="40" stroke="black" fill="white" stroke-width="1" /><text x="6620.953613281247" y="75.0" dominant-baseline="middle" text-anchor="middle" font-size="14px" font-family="Arial">Rz(x_12)</text><circle cx="6695.215117187497" cy="75.0" r="10.0" /><rect x="6675.215117187497" y="5.0" width="40" height="40" stroke="black" fill="white" stroke-width="1" /><text x="6695.215117187497" y="25.0" dominant-baseline="middle" text-anchor="middle" font-size="18px" font-family="Arial">X</text><rect x="6735.215117187497" y="5.0" width="68.68953125" height="40" stroke="black" fill="white" stroke-width="1" /><text x="6769.559882812497" y="25.0" dominant-baseline="middle" text-anchor="middle" font-size="14px" font-family="Arial">Rz(x_13)</text><rect x="6735.215117187497" y="55.0" width="68.68953125" height="40" stroke="black" fill="white" stroke-width="1" /><text x="6769.559882812497" y="75.0" dominant-baseline="middle" text-anchor="middle" font-size="14px" font-family="Arial">Ry(x_14)</text><circle cx="6843.904648437497" cy="25.0" r="10.0" /><rect x="6823.904648437497" y="55.0" width="40" height="40" stroke="black" fill="white" stroke-width="1" /><text x="6843.904648437497" y="75.0" dominant-baseline="middle" text-anchor="middle" font-size="18px" font-family="Arial">X</text><rect x="6883.904648437497" y="55.0" width="68.68953125" height="40" stroke="black" fill="white" stroke-width="1" /><text x="6918.249414062497" y="75.0" dominant-baseline="middle" text-anchor="middle" font-size="14px" font-family="Arial">Ry(x_15)</text><circle cx="6992.594179687497" cy="75.0" r="10.0" /><rect x="6972.594179687497" y="5.0" width="40" height="40" stroke="black" fill="white" stroke-width="1" /><text x="6992.594179687497" y="25.0" dominant-baseline="middle" text-anchor="middle" font-size="18px" font-family="Arial">X</text><rect x="7032.594179687497" y="5.0" width="68.5230078125" height="40" stroke="black" fill="white" stroke-width="1" /><text x="7066.855683593747" y="25.0" dominant-baseline="middle" text-anchor="middle" font-size="14px" font-family="Arial">Rz(x_16)</text><circle cx="7155.378691406247" cy="75.0" r="10.0" /><rect x="7121.117187499996" y="5.0" width="68.5230078125" height="40" stroke="black" fill="white" stroke-width="1" /><text x="7155.378691406247" y="25.0" dominant-baseline="middle" text-anchor="middle" font-size="14px" font-family="Arial">Rz(x_17)</text></svg>