<svg xmlns="http://www.w3.org/2000/svg" width="758.8473437499999" height="400.0"><line x1="30.0" x2="728.8473437499999" y1="25.0" y2="25.0" stroke="#1967d2" stroke-width="1" /><line x1="30.0" x2="728.8473437499999" y1="75.0" y2="75.0" stroke="#1967d2" stroke-width="1" /><line x1="30.0" x2="728.8473437499999" y1="125.0" y2="125.0" stroke="#1967d2" stroke-width="1" /><line x1="30.0" x2="728.8473437499999" y1="175.0" y2="175.0" stroke="#1967d2" stroke-width="1" /><line x1="30.0" x2="728.8473437499999" y1="225.0" y2="225.0" stroke="#1967d2" stroke-width="1" /><line x1="30.0" x2="728.8473437499999" y1="275.0" y2="275.0" stroke="#1967d2" stroke-width="1" /><line x1="30.0" x2="728.8473437499999" y1="325.0" y2="325.0" stroke="#1967d2" stroke-width="1" /><line x1="30.0" x2="728.8473437499999" y1="375.0" y2="375.0" stroke="#1967d2" stroke-width="1" /><line x1="99.807890625" x2="99.807890625" y1="25.0" y2="375.0" stroke="black" stroke-width="3" /><line x1="169.61578125" x2="169.61578125" y1="175.0" y2="375.0" stroke="black" stroke-width="3" /><line x1="229.61578125" x2="229.61578125" y1="25.0" y2="325.0" stroke="black" stroke-width="3" /><line x1="289.61578125" x2="289.61578125" y1="75.0" y2="275.0" stroke="black" stroke-width="3" /><line x1="349.61578125" x2="349.61578125" y1="125.0" y2="225.0" stroke="black" stroke-width="3" /><line x1="419.42367187499997" x2="419.42367187499997" y1="125.0" y2="175.0" stroke="black" stroke-width="3" /><line x1="489.2315625" x2="489.2315625" y1="25.0" y2="175.0" stroke="black" stroke-width="3" /><line x1="549.2315625" x2="549.2315625" y1="75.0" y2="125.0" stroke="black" stroke-width="3" /><line x1="619.039453125" x2="619.039453125" y1="75.0" y2="175.0" stroke="black" stroke-width="3" /><line x1="688.8473437499999" x2="688.8473437499999" y1="75.0" y2="175.0" stroke="black" stroke-width="3" /><rect x="10.0" y="5.0" width="40" height="40" stroke="black" fill="white" stroke-width="0" /><text x="30.0" y="25.0" dominant-baseline="middle" text-anchor="middle" font-size="14px" font-family="Arial">1: </text><rect x="10.0" y="55.0" width="40" height="40" stroke="black" fill="white" stroke-width="0" /><text x="30.0" y="75.0" dominant-baseline="middle" text-anchor="middle" font-size="14px" font-family="Arial">2: </text><rect x="10.0" y="105.0" width="40" height="40" stroke="black" fill="white" stroke-width="0" /><text x="30.0" y="125.0" dominant-baseline="middle" text-anchor="middle" font-size="14px" font-family="Arial">3: </text><rect x="10.0" y="155.0" width="40" height="40" stroke="black" fill="white" stroke-width="0" /><text x="30.0" y="175.0" dominant-baseline="middle" text-anchor="middle" font-size="14px" font-family="Arial">4: </text><rect x="10.0" y="205.0" width="40" height="40" stroke="black" fill="white" stroke-width="0" /><text x="30.0" y="225.0" dominant-baseline="middle" text-anchor="middle" font-size="14px" font-family="Arial">5: </text><rect x="10.0" y="255.0" width="40" height="40" stroke="black" fill="white" stroke-width="0" /><text x="30.0" y="275.0" dominant-baseline="middle" text-anchor="middle" font-size="14px" font-family="Arial">6: </text><rect x="10.0" y="305.0" width="40" height="40" stroke="black" fill="white" stroke-width="0" /><text x="30.0" y="325.0" dominant-baseline="middle" text-anchor="middle" font-size="14px" font-family="Arial">7: </text><rect x="10.0" y="355.0" width="40" height="40" stroke="black" fill="white" stroke-width="0" /><text x="30.0" y="375.0" dominant-baseline="middle" text-anchor="middle" font-size="14px" font-family="Arial">8: </text><circle cx="99.807890625" cy="375.0" r="10.0" /><rect x="70.0" y="5.0" width="59.61578125" height="40" stroke="black" fill="white" stroke-width="1" /><text x="99.807890625" y="25.0" dominant-baseline="middle" text-anchor="middle" font-size="14px" font-family="Arial">Rz(x_0)</text><circle cx="169.61578125" cy="375.0" r="10.0" /><rect x="149.61578125" y="155.0" width="40" height="40" stroke="black" fill="white" stroke-width="1" /><text x="169.61578125" y="175.0" dominant-baseline="middle" text-anchor="middle" font-size="18px" font-family="Arial">X</text><circle cx="229.61578125" cy="325.0" r="10.0" /><rect x="209.61578125" y="5.0" width="40" height="40" stroke="black" fill="white" stroke-width="1" /><text x="229.61578125" y="25.0" dominant-baseline="middle" text-anchor="middle" font-size="18px" font-family="Arial">X</text><circle cx="289.61578125" cy="275.0" r="10.0" /><rect x="269.61578125" y="55.0" width="40" height="40" stroke="black" fill="white" stroke-width="1" /><text x="289.61578125" y="75.0" dominant-baseline="middle" text-anchor="middle" font-size="18px" font-family="Arial">X</text><circle cx="349.61578125" cy="225.0" r="10.0" /><rect x="329.61578125" y="105.0" width="40" height="40" stroke="black" fill="white" stroke-width="1" /><text x="349.61578125" y="125.0" dominant-baseline="middle" text-anchor="middle" font-size="18px" font-family="Arial">X</text><circle cx="419.42367187499997" cy="175.0" r="10.0" /><rect x="389.61578124999994" y="105.0" width="59.61578125" height="40" stroke="black" fill="white" stroke-width="1" /><text x="419.42367187499997" y="125.0" dominant-baseline="middle" text-anchor="middle" font-size="14px" font-family="Arial">Rz(x_1)</text><circle cx="489.2315625" cy="25.0" r="10.0" /><rect x="469.2315625" y="155.0" width="40" height="40" stroke="black" fill="white" stroke-width="1" /><text x="489.2315625" y="175.0" dominant-baseline="middle" text-anchor="middle" font-size="18px" font-family="Arial">X</text><circle cx="549.2315625" cy="125.0" r="10.0" /><rect x="529.2315625" y="55.0" width="40" height="40" stroke="black" fill="white" stroke-width="1" /><text x="549.2315625" y="75.0" dominant-baseline="middle" text-anchor="middle" font-size="18px" font-family="Arial">X</text><circle cx="619.039453125" cy="75.0" r="10.0" /><rect x="589.2315625" y="155.0" width="59.61578125" height="40" stroke="black" fill="white" stroke-width="1" /><text x="619.039453125" y="175.0" dominant-baseline="middle" text-anchor="middle" font-size="14px" font-family="Arial">Rz(x_2)</text><circle cx="688.8473437499999" cy="175.0" r="10.0" /><rect x="668.8473437499999" y="55.0" width="40" height="40" stroke="black" fill="white" stroke-width="1" /><text x="688.8473437499999" y="75.0" dominant-baseline="middle" text-anchor="middle" font-size="18px" font-family="Arial">X</text></svg>