<svg xmlns="http://www.w3.org/2000/svg" width="678.07890625" height="200.0"><line x1="30.0" x2="648.07890625" y1="25.0" y2="25.0" stroke="#1967d2" stroke-width="1" /><line x1="30.0" x2="648.07890625" y1="75.0" y2="75.0" stroke="#1967d2" stroke-width="1" /><line x1="30.0" x2="648.07890625" y1="125.0" y2="125.0" stroke="#1967d2" stroke-width="1" /><line x1="30.0" x2="648.07890625" y1="175.0" y2="175.0" stroke="#1967d2" stroke-width="1" /><line x1="99.807890625" x2="99.807890625" y1="25.0" y2="75.0" stroke="black" stroke-width="3" /><line x1="179.423671875" x2="179.423671875" y1="75.0" y2="125.0" stroke="black" stroke-width="3" /><line x1="259.039453125" x2="259.039453125" y1="125.0" y2="175.0" stroke="black" stroke-width="3" /><line x1="338.65523437499996" x2="338.65523437499996" y1="25.0" y2="175.0" stroke="black" stroke-width="3" /><line x1="408.463125" x2="408.463125" y1="25.0" y2="175.0" stroke="black" stroke-width="3" /><line x1="468.463125" x2="468.463125" y1="75.0" y2="125.0" stroke="black" stroke-width="3" /><line x1="538.271015625" x2="538.271015625" y1="25.0" y2="75.0" stroke="black" stroke-width="3" /><line x1="608.07890625" x2="608.07890625" y1="25.0" y2="75.0" stroke="black" stroke-width="3" /><rect x="10.0" y="5.0" width="40" height="40" stroke="black" fill="white" stroke-width="0" /><text x="30.0" y="25.0" dominant-baseline="middle" text-anchor="middle" font-size="14px" font-family="Arial">1: </text><rect x="10.0" y="55.0" width="40" height="40" stroke="black" fill="white" stroke-width="0" /><text x="30.0" y="75.0" dominant-baseline="middle" text-anchor="middle" font-size="14px" font-family="Arial">2: </text><rect x="10.0" y="105.0" width="40" height="40" stroke="black" fill="white" stroke-width="0" /><text x="30.0" y="125.0" dominant-baseline="middle" text-anchor="middle" font-size="14px" font-family="Arial">3: </text><rect x="10.0" y="155.0" width="40" height="40" stroke="black" fill="white" stroke-width="0" /><text x="30.0" y="175.0" dominant-baseline="middle" text-anchor="middle" font-size="14px" font-family="Arial">4: </text><circle cx="99.807890625" cy="25.0" r="10.0" /><rect x="70.0" y="55.0" width="59.61578125" height="40" stroke="black" fill="white" stroke-width="1" /><text x="99.807890625" y="75.0" dominant-baseline="middle" text-anchor="middle" font-size="14px" font-family="Arial">Rz(x_0)</text><circle cx="179.423671875" cy="75.0" r="10.0" /><rect x="149.61578125" y="105.0" width="59.61578125" height="40" stroke="black" fill="white" stroke-width="1" /><text x="179.423671875" y="125.0" dominant-baseline="middle" text-anchor="middle" font-size="14px" font-family="Arial">Rz(x_0)</text><circle cx="259.039453125" cy="125.0" r="10.0" /><rect x="229.23156250000002" y="155.0" width="59.61578125" height="40" stroke="black" fill="white" stroke-width="1" /><text x="259.039453125" y="175.0" dominant-baseline="middle" text-anchor="middle" font-size="14px" font-family="Arial">Rz(x_0)</text><circle cx="338.65523437499996" cy="175.0" r="10.0" /><rect x="308.84734374999994" y="5.0" width="59.61578125" height="40" stroke="black" fill="white" stroke-width="1" /><text x="338.65523437499996" y="25.0" dominant-baseline="middle" text-anchor="middle" font-size="14px" font-family="Arial">Rz(x_0)</text><circle cx="408.463125" cy="175.0" r="10.0" /><rect x="388.463125" y="5.0" width="40" height="40" stroke="black" fill="white" stroke-width="1" /><text x="408.463125" y="25.0" dominant-baseline="middle" text-anchor="middle" font-size="18px" font-family="Arial">X</text><circle cx="468.463125" cy="125.0" r="10.0" /><rect x="448.463125" y="55.0" width="40" height="40" stroke="black" fill="white" stroke-width="1" /><text x="468.463125" y="75.0" dominant-baseline="middle" text-anchor="middle" font-size="18px" font-family="Arial">X</text><circle cx="538.271015625" cy="25.0" r="10.0" /><rect x="508.463125" y="55.0" width="59.61578125" height="40" stroke="black" fill="white" stroke-width="1" /><text x="538.271015625" y="75.0" dominant-baseline="middle" text-anchor="middle" font-size="14px" font-family="Arial">Rz(x_1)</text><circle cx="608.07890625" cy="75.0" r="10.0" /><rect x="588.07890625" y="5.0" width="40" height="40" stroke="black" fill="white" stroke-width="1" /><text x="608.07890625" y="25.0" dominant-baseline="middle" text-anchor="middle" font-size="18px" font-family="Arial">X</text></svg>