<svg xmlns="http://www.w3.org/2000/svg" width="570.796171875" height="100.0"><line x1="30.0" x2="540.796171875" y1="25.0" y2="25.0" stroke="#1967d2" stroke-width="1" /><line x1="30.0" x2="540.796171875" y1="75.0" y2="75.0" stroke="#1967d2" stroke-width="1" /><line x1="162.61578125" x2="162.61578125" y1="25.0" y2="75.0" stroke="black" stroke-width="3" /><line x1="295.3980859375" x2="295.3980859375" y1="25.0" y2="75.0" stroke="black" stroke-width="3" /><line x1="428.18039062500003" x2="428.18039062500003" y1="25.0" y2="75.0" stroke="black" stroke-width="3" /><rect x="10.0" y="5.0" width="40" height="40" stroke="black" fill="white" stroke-width="0" /><text x="30.0" y="25.0" dominant-baseline="middle" text-anchor="middle" font-size="14px" font-family="Arial">0: </text><rect x="10.0" y="55.0" width="40" height="40" stroke="black" fill="white" stroke-width="0" /><text x="30.0" y="75.0" dominant-baseline="middle" text-anchor="middle" font-size="14px" font-family="Arial">1: </text><rect x="70.0" y="55.0" width="52.61578125" height="40" stroke="black" fill="white" stroke-width="1" /><text x="96.307890625" y="75.0" dominant-baseline="middle" text-anchor="middle" font-size="14px" font-family="Arial">Rz(x0)</text><circle cx="162.61578125" cy="75.0" r="10.0" /><rect x="142.61578125" y="5.0" width="40" height="40" stroke="black" fill="white" stroke-width="1" /><text x="162.61578125" y="25.0" dominant-baseline="middle" text-anchor="middle" font-size="18px" font-family="Arial">X</text><rect x="202.61578125" y="5.0" width="52.7823046875" height="40" stroke="black" fill="white" stroke-width="1" /><text x="229.00693359375" y="25.0" dominant-baseline="middle" text-anchor="middle" font-size="14px" font-family="Arial">Rz(x1)</text><rect x="202.61578125" y="55.0" width="52.7823046875" height="40" stroke="black" fill="white" stroke-width="1" /><text x="229.00693359375" y="75.0" dominant-baseline="middle" text-anchor="middle" font-size="14px" font-family="Arial">Ry(x2)</text><circle cx="295.3980859375" cy="25.0" r="10.0" /><rect x="275.3980859375" y="55.0" width="40" height="40" stroke="black" fill="white" stroke-width="1" /><text x="295.3980859375" y="75.0" dominant-baseline="middle" text-anchor="middle" font-size="18px" font-family="Arial">X</text><rect x="335.3980859375" y="55.0" width="52.7823046875" height="40" stroke="black" fill="white" stroke-width="1" /><text x="361.78923828125" y="75.0" dominant-baseline="middle" text-anchor="middle" font-size="14px" font-family="Arial">Ry(x3)</text><circle cx="428.18039062500003" cy="75.0" r="10.0" /><rect x="408.18039062500003" y="5.0" width="40" height="40" stroke="black" fill="white" stroke-width="1" /><text x="428.18039062500003" y="25.0" dominant-baseline="middle" text-anchor="middle" font-size="18px" font-family="Arial">X</text><rect x="468.180390625" y="5.0" width="52.61578125" height="40" stroke="black" fill="white" stroke-width="1" /><text x="494.48828125" y="25.0" dominant-baseline="middle" text-anchor="middle" font-size="14px" font-family="Arial">Rz(x4)</text></svg>