<svg xmlns="http://www.w3.org/2000/svg" width="4565.3996875" height="400.0"><line x1="30.0" x2="4535.3996875" y1="25.0" y2="25.0" stroke="#1967d2" stroke-width="1" /><line x1="30.0" x2="4535.3996875" y1="75.0" y2="75.0" stroke="#1967d2" stroke-width="1" /><line x1="30.0" x2="4535.3996875" y1="125.0" y2="125.0" stroke="#1967d2" stroke-width="1" /><line x1="30.0" x2="4535.3996875" y1="175.0" y2="175.0" stroke="#1967d2" stroke-width="1" /><line x1="30.0" x2="4535.3996875" y1="225.0" y2="225.0" stroke="#1967d2" stroke-width="1" /><line x1="30.0" x2="4535.3996875" y1="275.0" y2="275.0" stroke="#1967d2" stroke-width="1" /><line x1="30.0" x2="4535.3996875" y1="325.0" y2="325.0" stroke="#1967d2" stroke-width="1" /><line x1="30.0" x2="4535.3996875" y1="375.0" y2="375.0" stroke="#1967d2" stroke-width="1" /><line x1="99.807890625" x2="99.807890625" y1="25.0" y2="75.0" stroke="black" stroke-width="3" /><line x1="179.423671875" x2="179.423671875" y1="75.0" y2="125.0" stroke="black" stroke-width="3" /><line x1="259.039453125" x2="259.039453125" y1="125.0" y2="175.0" stroke="black" stroke-width="3" /><line x1="338.65523437499996" x2="338.65523437499996" y1="175.0" y2="225.0" stroke="black" stroke-width="3" /><line x1="418.271015625" x2="418.271015625" y1="225.0" y2="275.0" stroke="black" stroke-width="3" /><line x1="497.88679687499996" x2="497.88679687499996" y1="25.0" y2="275.0" stroke="black" stroke-width="3" /><line x1="567.6946875" x2="567.6946875" y1="75.0" y2="175.0" stroke="black" stroke-width="3" /><line x1="627.6946875" x2="627.6946875" y1="125.0" y2="275.0" stroke="black" stroke-width="3" /><line x1="697.502578125" x2="697.502578125" y1="25.0" y2="75.0" stroke="black" stroke-width="3" /><line x1="777.118359375" x2="777.118359375" y1="75.0" y2="125.0" stroke="black" stroke-width="3" /><line x1="856.734140625" x2="856.734140625" y1="125.0" y2="175.0" stroke="black" stroke-width="3" /><line x1="936.3499218750001" x2="936.3499218750001" y1="175.0" y2="225.0" stroke="black" stroke-width="3" /><line x1="1015.9657031250001" x2="1015.9657031250001" y1="225.0" y2="275.0" stroke="black" stroke-width="3" /><line x1="1095.5814843750002" x2="1095.5814843750002" y1="275.0" y2="325.0" stroke="black" stroke-width="3" /><line x1="1175.1972656250002" x2="1175.1972656250002" y1="325.0" y2="375.0" stroke="black" stroke-width="3" /><line x1="1254.8130468750003" x2="1254.8130468750003" y1="25.0" y2="375.0" stroke="black" stroke-width="3" /><line x1="1324.6209375000003" x2="1324.6209375000003" y1="25.0" y2="375.0" stroke="black" stroke-width="3" /><line x1="1384.6209375000003" x2="1384.6209375000003" y1="75.0" y2="375.0" stroke="black" stroke-width="3" /><line x1="1444.6209375000003" x2="1444.6209375000003" y1="125.0" y2="375.0" stroke="black" stroke-width="3" /><line x1="1504.6209375000003" x2="1504.6209375000003" y1="175.0" y2="375.0" stroke="black" stroke-width="3" /><line x1="1564.6209375000003" x2="1564.6209375000003" y1="225.0" y2="375.0" stroke="black" stroke-width="3" /><line x1="1624.6209375000003" x2="1624.6209375000003" y1="275.0" y2="375.0" stroke="black" stroke-width="3" /><line x1="1684.6209375000003" x2="1684.6209375000003" y1="325.0" y2="375.0" stroke="black" stroke-width="3" /><line x1="1754.4288281250003" x2="1754.4288281250003" y1="25.0" y2="75.0" stroke="black" stroke-width="3" /><line x1="1834.0446093750004" x2="1834.0446093750004" y1="75.0" y2="125.0" stroke="black" stroke-width="3" /><line x1="1913.6603906250004" x2="1913.6603906250004" y1="125.0" y2="175.0" stroke="black" stroke-width="3" /><line x1="1993.2761718750005" x2="1993.2761718750005" y1="25.0" y2="175.0" stroke="black" stroke-width="3" /><line x1="2063.0840625000005" x2="2063.0840625000005" y1="25.0" y2="75.0" stroke="black" stroke-width="3" /><line x1="2123.0840625000005" x2="2123.0840625000005" y1="125.0" y2="175.0" stroke="black" stroke-width="3" /><line x1="2192.8919531250003" x2="2192.8919531250003" y1="75.0" y2="175.0" stroke="black" stroke-width="3" /><line x1="2262.6998437500006" x2="2262.6998437500006" y1="75.0" y2="175.0" stroke="black" stroke-width="3" /><line x1="2332.5077343750004" x2="2332.5077343750004" y1="25.0" y2="75.0" stroke="black" stroke-width="3" /><line x1="2412.1235156250004" x2="2412.1235156250004" y1="75.0" y2="125.0" stroke="black" stroke-width="3" /><line x1="2491.7392968750005" x2="2491.7392968750005" y1="125.0" y2="175.0" stroke="black" stroke-width="3" /><line x1="2571.3550781250005" x2="2571.3550781250005" y1="175.0" y2="225.0" stroke="black" stroke-width="3" /><line x1="2650.9708593750006" x2="2650.9708593750006" y1="225.0" y2="275.0" stroke="black" stroke-width="3" /><line x1="2730.5866406250007" x2="2730.5866406250007" y1="25.0" y2="275.0" stroke="black" stroke-width="3" /><line x1="2800.394531250001" x2="2800.394531250001" y1="75.0" y2="175.0" stroke="black" stroke-width="3" /><line x1="2860.394531250001" x2="2860.394531250001" y1="125.0" y2="275.0" stroke="black" stroke-width="3" /><line x1="2930.2024218750007" x2="2930.2024218750007" y1="25.0" y2="75.0" stroke="black" stroke-width="3" /><line x1="3009.8182031250008" x2="3009.8182031250008" y1="75.0" y2="125.0" stroke="black" stroke-width="3" /><line x1="3089.433984375001" x2="3089.433984375001" y1="125.0" y2="175.0" stroke="black" stroke-width="3" /><line x1="3169.049765625001" x2="3169.049765625001" y1="175.0" y2="225.0" stroke="black" stroke-width="3" /><line x1="3248.665546875001" x2="3248.665546875001" y1="225.0" y2="275.0" stroke="black" stroke-width="3" /><line x1="3328.281328125001" x2="3328.281328125001" y1="275.0" y2="325.0" stroke="black" stroke-width="3" /><line x1="3407.897109375001" x2="3407.897109375001" y1="325.0" y2="375.0" stroke="black" stroke-width="3" /><line x1="3487.512890625001" x2="3487.512890625001" y1="25.0" y2="375.0" stroke="black" stroke-width="3" /><line x1="3557.3207812500013" x2="3557.3207812500013" y1="25.0" y2="375.0" stroke="black" stroke-width="3" /><line x1="3617.3207812500013" x2="3617.3207812500013" y1="75.0" y2="375.0" stroke="black" stroke-width="3" /><line x1="3677.3207812500013" x2="3677.3207812500013" y1="125.0" y2="375.0" stroke="black" stroke-width="3" /><line x1="3737.3207812500013" x2="3737.3207812500013" y1="175.0" y2="375.0" stroke="black" stroke-width="3" /><line x1="3797.3207812500013" x2="3797.3207812500013" y1="225.0" y2="375.0" stroke="black" stroke-width="3" /><line x1="3857.3207812500013" x2="3857.3207812500013" y1="275.0" y2="375.0" stroke="black" stroke-width="3" /><line x1="3917.3207812500013" x2="3917.3207812500013" y1="325.0" y2="375.0" stroke="black" stroke-width="3" /><line x1="3987.128671875001" x2="3987.128671875001" y1="25.0" y2="75.0" stroke="black" stroke-width="3" /><line x1="4066.744453125001" x2="4066.744453125001" y1="75.0" y2="125.0" stroke="black" stroke-width="3" /><line x1="4146.360234375002" x2="4146.360234375002" y1="125.0" y2="175.0" stroke="black" stroke-width="3" /><line x1="4225.976015625001" x2="4225.976015625001" y1="25.0" y2="175.0" stroke="black" stroke-width="3" /><line x1="4295.783906250001" x2="4295.783906250001" y1="25.0" y2="75.0" stroke="black" stroke-width="3" /><line x1="4355.783906250001" x2="4355.783906250001" y1="125.0" y2="175.0" stroke="black" stroke-width="3" /><line x1="4425.591796875001" x2="4425.591796875001" y1="75.0" y2="175.0" stroke="black" stroke-width="3" /><line x1="4495.3996875" x2="4495.3996875" y1="75.0" y2="175.0" stroke="black" stroke-width="3" /><rect x="10.0" y="5.0" width="40" height="40" stroke="black" fill="white" stroke-width="0" /><text x="30.0" y="25.0" dominant-baseline="middle" text-anchor="middle" font-size="14px" font-family="Arial">1: </text><rect x="10.0" y="55.0" width="40" height="40" stroke="black" fill="white" stroke-width="0" /><text x="30.0" y="75.0" dominant-baseline="middle" text-anchor="middle" font-size="14px" font-family="Arial">2: </text><rect x="10.0" y="105.0" width="40" height="40" stroke="black" fill="white" stroke-width="0" /><text x="30.0" y="125.0" dominant-baseline="middle" text-anchor="middle" font-size="14px" font-family="Arial">3: </text><rect x="10.0" y="155.0" width="40" height="40" stroke="black" fill="white" stroke-width="0" /><text x="30.0" y="175.0" dominant-baseline="middle" text-anchor="middle" font-size="14px" font-family="Arial">4: </text><rect x="10.0" y="205.0" width="40" height="40" stroke="black" fill="white" stroke-width="0" /><text x="30.0" y="225.0" dominant-baseline="middle" text-anchor="middle" font-size="14px" font-family="Arial">5: </text><rect x="10.0" y="255.0" width="40" height="40" stroke="black" fill="white" stroke-width="0" /><text x="30.0" y="275.0" dominant-baseline="middle" text-anchor="middle" font-size="14px" font-family="Arial">6: </text><rect x="10.0" y="305.0" width="40" height="40" stroke="black" fill="white" stroke-width="0" /><text x="30.0" y="325.0" dominant-baseline="middle" text-anchor="middle" font-size="14px" font-family="Arial">7: </text><rect x="10.0" y="355.0" width="40" height="40" stroke="black" fill="white" stroke-width="0" /><text x="30.0" y="375.0" dominant-baseline="middle" text-anchor="middle" font-size="14px" font-family="Arial">8: </text><circle cx="99.807890625" cy="25.0" r="10.0" /><rect x="70.0" y="55.0" width="59.61578125" height="40" stroke="black" fill="white" stroke-width="1" /><text x="99.807890625" y="75.0" dominant-baseline="middle" text-anchor="middle" font-size="14px" font-family="Arial">Rz(x_0)</text><circle cx="179.423671875" cy="75.0" r="10.0" /><rect x="149.61578125" y="105.0" width="59.61578125" height="40" stroke="black" fill="white" stroke-width="1" /><text x="179.423671875" y="125.0" dominant-baseline="middle" text-anchor="middle" font-size="14px" font-family="Arial">Rz(x_0)</text><circle cx="259.039453125" cy="125.0" r="10.0" /><rect x="229.23156250000002" y="155.0" width="59.61578125" height="40" stroke="black" fill="white" stroke-width="1" /><text x="259.039453125" y="175.0" dominant-baseline="middle" text-anchor="middle" font-size="14px" font-family="Arial">Rz(x_0)</text><circle cx="338.65523437499996" cy="175.0" r="10.0" /><rect x="308.84734374999994" y="205.0" width="59.61578125" height="40" stroke="black" fill="white" stroke-width="1" /><text x="338.65523437499996" y="225.0" dominant-baseline="middle" text-anchor="middle" font-size="14px" font-family="Arial">Rz(x_0)</text><circle cx="418.271015625" cy="225.0" r="10.0" /><rect x="388.463125" y="255.0" width="59.61578125" height="40" stroke="black" fill="white" stroke-width="1" /><text x="418.271015625" y="275.0" dominant-baseline="middle" text-anchor="middle" font-size="14px" font-family="Arial">Rz(x_0)</text><circle cx="497.88679687499996" cy="275.0" r="10.0" /><rect x="468.07890624999993" y="5.0" width="59.61578125" height="40" stroke="black" fill="white" stroke-width="1" /><text x="497.88679687499996" y="25.0" dominant-baseline="middle" text-anchor="middle" font-size="14px" font-family="Arial">Rz(x_0)</text><circle cx="567.6946875" cy="175.0" r="10.0" /><rect x="547.6946875" y="55.0" width="40" height="40" stroke="black" fill="white" stroke-width="1" /><text x="567.6946875" y="75.0" dominant-baseline="middle" text-anchor="middle" font-size="18px" font-family="Arial">X</text><circle cx="627.6946875" cy="275.0" r="10.0" /><rect x="607.6946875" y="105.0" width="40" height="40" stroke="black" fill="white" stroke-width="1" /><text x="627.6946875" y="125.0" dominant-baseline="middle" text-anchor="middle" font-size="18px" font-family="Arial">X</text><circle cx="697.502578125" cy="25.0" r="10.0" /><rect x="667.6946875" y="55.0" width="59.61578125" height="40" stroke="black" fill="white" stroke-width="1" /><text x="697.502578125" y="75.0" dominant-baseline="middle" text-anchor="middle" font-size="14px" font-family="Arial">Rz(x_1)</text><circle cx="777.118359375" cy="75.0" r="10.0" /><rect x="747.3104687499999" y="105.0" width="59.61578125" height="40" stroke="black" fill="white" stroke-width="1" /><text x="777.118359375" y="125.0" dominant-baseline="middle" text-anchor="middle" font-size="14px" font-family="Arial">Rz(x_1)</text><circle cx="856.734140625" cy="125.0" r="10.0" /><rect x="826.92625" y="155.0" width="59.61578125" height="40" stroke="black" fill="white" stroke-width="1" /><text x="856.734140625" y="175.0" dominant-baseline="middle" text-anchor="middle" font-size="14px" font-family="Arial">Rz(x_1)</text><circle cx="936.3499218750001" cy="175.0" r="10.0" /><rect x="906.54203125" y="205.0" width="59.61578125" height="40" stroke="black" fill="white" stroke-width="1" /><text x="936.3499218750001" y="225.0" dominant-baseline="middle" text-anchor="middle" font-size="14px" font-family="Arial">Rz(x_1)</text><circle cx="1015.9657031250001" cy="225.0" r="10.0" /><rect x="986.1578125000001" y="255.0" width="59.61578125" height="40" stroke="black" fill="white" stroke-width="1" /><text x="1015.9657031250001" y="275.0" dominant-baseline="middle" text-anchor="middle" font-size="14px" font-family="Arial">Rz(x_1)</text><circle cx="1095.5814843750002" cy="275.0" r="10.0" /><rect x="1065.7735937500001" y="305.0" width="59.61578125" height="40" stroke="black" fill="white" stroke-width="1" /><text x="1095.5814843750002" y="325.0" dominant-baseline="middle" text-anchor="middle" font-size="14px" font-family="Arial">Rz(x_1)</text><circle cx="1175.1972656250002" cy="325.0" r="10.0" /><rect x="1145.3893750000002" y="355.0" width="59.61578125" height="40" stroke="black" fill="white" stroke-width="1" /><text x="1175.1972656250002" y="375.0" dominant-baseline="middle" text-anchor="middle" font-size="14px" font-family="Arial">Rz(x_1)</text><circle cx="1254.8130468750003" cy="375.0" r="10.0" /><rect x="1225.0051562500003" y="5.0" width="59.61578125" height="40" stroke="black" fill="white" stroke-width="1" /><text x="1254.8130468750003" y="25.0" dominant-baseline="middle" text-anchor="middle" font-size="14px" font-family="Arial">Rz(x_1)</text><circle cx="1324.6209375000003" cy="25.0" r="10.0" /><rect x="1304.6209375000003" y="355.0" width="40" height="40" stroke="black" fill="white" stroke-width="1" /><text x="1324.6209375000003" y="375.0" dominant-baseline="middle" text-anchor="middle" font-size="18px" font-family="Arial">X</text><circle cx="1384.6209375000003" cy="75.0" r="10.0" /><rect x="1364.6209375000003" y="355.0" width="40" height="40" stroke="black" fill="white" stroke-width="1" /><text x="1384.6209375000003" y="375.0" dominant-baseline="middle" text-anchor="middle" font-size="18px" font-family="Arial">X</text><circle cx="1444.6209375000003" cy="125.0" r="10.0" /><rect x="1424.6209375000003" y="355.0" width="40" height="40" stroke="black" fill="white" stroke-width="1" /><text x="1444.6209375000003" y="375.0" dominant-baseline="middle" text-anchor="middle" font-size="18px" font-family="Arial">X</text><circle cx="1504.6209375000003" cy="175.0" r="10.0" /><rect x="1484.6209375000003" y="355.0" width="40" height="40" stroke="black" fill="white" stroke-width="1" /><text x="1504.6209375000003" y="375.0" dominant-baseline="middle" text-anchor="middle" font-size="18px" font-family="Arial">X</text><circle cx="1564.6209375000003" cy="225.0" r="10.0" /><rect x="1544.6209375000003" y="355.0" width="40" height="40" stroke="black" fill="white" stroke-width="1" /><text x="1564.6209375000003" y="375.0" dominant-baseline="middle" text-anchor="middle" font-size="18px" font-family="Arial">X</text><circle cx="1624.6209375000003" cy="275.0" r="10.0" /><rect x="1604.6209375000003" y="355.0" width="40" height="40" stroke="black" fill="white" stroke-width="1" /><text x="1624.6209375000003" y="375.0" dominant-baseline="middle" text-anchor="middle" font-size="18px" font-family="Arial">X</text><circle cx="1684.6209375000003" cy="325.0" r="10.0" /><rect x="1664.6209375000003" y="355.0" width="40" height="40" stroke="black" fill="white" stroke-width="1" /><text x="1684.6209375000003" y="375.0" dominant-baseline="middle" text-anchor="middle" font-size="18px" font-family="Arial">X</text><circle cx="1754.4288281250003" cy="25.0" r="10.0" /><rect x="1724.6209375000003" y="55.0" width="59.61578125" height="40" stroke="black" fill="white" stroke-width="1" /><text x="1754.4288281250003" y="75.0" dominant-baseline="middle" text-anchor="middle" font-size="14px" font-family="Arial">Rz(x_2)</text><circle cx="1834.0446093750004" cy="75.0" r="10.0" /><rect x="1804.2367187500004" y="105.0" width="59.61578125" height="40" stroke="black" fill="white" stroke-width="1" /><text x="1834.0446093750004" y="125.0" dominant-baseline="middle" text-anchor="middle" font-size="14px" font-family="Arial">Rz(x_2)</text><circle cx="1913.6603906250004" cy="125.0" r="10.0" /><rect x="1883.8525000000004" y="155.0" width="59.61578125" height="40" stroke="black" fill="white" stroke-width="1" /><text x="1913.6603906250004" y="175.0" dominant-baseline="middle" text-anchor="middle" font-size="14px" font-family="Arial">Rz(x_2)</text><circle cx="1993.2761718750005" cy="175.0" r="10.0" /><rect x="1963.4682812500005" y="5.0" width="59.61578125" height="40" stroke="black" fill="white" stroke-width="1" /><text x="1993.2761718750005" y="25.0" dominant-baseline="middle" text-anchor="middle" font-size="14px" font-family="Arial">Rz(x_2)</text><circle cx="2063.0840625000005" cy="25.0" r="10.0" /><rect x="2043.0840625000005" y="55.0" width="40" height="40" stroke="black" fill="white" stroke-width="1" /><text x="2063.0840625000005" y="75.0" dominant-baseline="middle" text-anchor="middle" font-size="18px" font-family="Arial">X</text><circle cx="2123.0840625000005" cy="125.0" r="10.0" /><rect x="2103.0840625000005" y="155.0" width="40" height="40" stroke="black" fill="white" stroke-width="1" /><text x="2123.0840625000005" y="175.0" dominant-baseline="middle" text-anchor="middle" font-size="18px" font-family="Arial">X</text><circle cx="2192.8919531250003" cy="75.0" r="10.0" /><rect x="2163.0840625000005" y="155.0" width="59.61578125" height="40" stroke="black" fill="white" stroke-width="1" /><text x="2192.8919531250003" y="175.0" dominant-baseline="middle" text-anchor="middle" font-size="14px" font-family="Arial">Rz(x_3)</text><circle cx="2262.6998437500006" cy="75.0" r="10.0" /><rect x="2242.6998437500006" y="155.0" width="40" height="40" stroke="black" fill="white" stroke-width="1" /><text x="2262.6998437500006" y="175.0" dominant-baseline="middle" text-anchor="middle" font-size="18px" font-family="Arial">X</text><circle cx="2332.5077343750004" cy="25.0" r="10.0" /><rect x="2302.6998437500006" y="55.0" width="59.61578125" height="40" stroke="black" fill="white" stroke-width="1" /><text x="2332.5077343750004" y="75.0" dominant-baseline="middle" text-anchor="middle" font-size="14px" font-family="Arial">Rz(x_4)</text><circle cx="2412.1235156250004" cy="75.0" r="10.0" /><rect x="2382.3156250000006" y="105.0" width="59.61578125" height="40" stroke="black" fill="white" stroke-width="1" /><text x="2412.1235156250004" y="125.0" dominant-baseline="middle" text-anchor="middle" font-size="14px" font-family="Arial">Rz(x_4)</text><circle cx="2491.7392968750005" cy="125.0" r="10.0" /><rect x="2461.9314062500007" y="155.0" width="59.61578125" height="40" stroke="black" fill="white" stroke-width="1" /><text x="2491.7392968750005" y="175.0" dominant-baseline="middle" text-anchor="middle" font-size="14px" font-family="Arial">Rz(x_4)</text><circle cx="2571.3550781250005" cy="175.0" r="10.0" /><rect x="2541.5471875000007" y="205.0" width="59.61578125" height="40" stroke="black" fill="white" stroke-width="1" /><text x="2571.3550781250005" y="225.0" dominant-baseline="middle" text-anchor="middle" font-size="14px" font-family="Arial">Rz(x_4)</text><circle cx="2650.9708593750006" cy="225.0" r="10.0" /><rect x="2621.162968750001" y="255.0" width="59.61578125" height="40" stroke="black" fill="white" stroke-width="1" /><text x="2650.9708593750006" y="275.0" dominant-baseline="middle" text-anchor="middle" font-size="14px" font-family="Arial">Rz(x_4)</text><circle cx="2730.5866406250007" cy="275.0" r="10.0" /><rect x="2700.778750000001" y="5.0" width="59.61578125" height="40" stroke="black" fill="white" stroke-width="1" /><text x="2730.5866406250007" y="25.0" dominant-baseline="middle" text-anchor="middle" font-size="14px" font-family="Arial">Rz(x_4)</text><circle cx="2800.394531250001" cy="175.0" r="10.0" /><rect x="2780.394531250001" y="55.0" width="40" height="40" stroke="black" fill="white" stroke-width="1" /><text x="2800.394531250001" y="75.0" dominant-baseline="middle" text-anchor="middle" font-size="18px" font-family="Arial">X</text><circle cx="2860.394531250001" cy="275.0" r="10.0" /><rect x="2840.394531250001" y="105.0" width="40" height="40" stroke="black" fill="white" stroke-width="1" /><text x="2860.394531250001" y="125.0" dominant-baseline="middle" text-anchor="middle" font-size="18px" font-family="Arial">X</text><circle cx="2930.2024218750007" cy="25.0" r="10.0" /><rect x="2900.394531250001" y="55.0" width="59.61578125" height="40" stroke="black" fill="white" stroke-width="1" /><text x="2930.2024218750007" y="75.0" dominant-baseline="middle" text-anchor="middle" font-size="14px" font-family="Arial">Rz(x_5)</text><circle cx="3009.8182031250008" cy="75.0" r="10.0" /><rect x="2980.010312500001" y="105.0" width="59.61578125" height="40" stroke="black" fill="white" stroke-width="1" /><text x="3009.8182031250008" y="125.0" dominant-baseline="middle" text-anchor="middle" font-size="14px" font-family="Arial">Rz(x_5)</text><circle cx="3089.433984375001" cy="125.0" r="10.0" /><rect x="3059.626093750001" y="155.0" width="59.61578125" height="40" stroke="black" fill="white" stroke-width="1" /><text x="3089.433984375001" y="175.0" dominant-baseline="middle" text-anchor="middle" font-size="14px" font-family="Arial">Rz(x_5)</text><circle cx="3169.049765625001" cy="175.0" r="10.0" /><rect x="3139.241875000001" y="205.0" width="59.61578125" height="40" stroke="black" fill="white" stroke-width="1" /><text x="3169.049765625001" y="225.0" dominant-baseline="middle" text-anchor="middle" font-size="14px" font-family="Arial">Rz(x_5)</text><circle cx="3248.665546875001" cy="225.0" r="10.0" /><rect x="3218.857656250001" y="255.0" width="59.61578125" height="40" stroke="black" fill="white" stroke-width="1" /><text x="3248.665546875001" y="275.0" dominant-baseline="middle" text-anchor="middle" font-size="14px" font-family="Arial">Rz(x_5)</text><circle cx="3328.281328125001" cy="275.0" r="10.0" /><rect x="3298.473437500001" y="305.0" width="59.61578125" height="40" stroke="black" fill="white" stroke-width="1" /><text x="3328.281328125001" y="325.0" dominant-baseline="middle" text-anchor="middle" font-size="14px" font-family="Arial">Rz(x_5)</text><circle cx="3407.897109375001" cy="325.0" r="10.0" /><rect x="3378.0892187500012" y="355.0" width="59.61578125" height="40" stroke="black" fill="white" stroke-width="1" /><text x="3407.897109375001" y="375.0" dominant-baseline="middle" text-anchor="middle" font-size="14px" font-family="Arial">Rz(x_5)</text><circle cx="3487.512890625001" cy="375.0" r="10.0" /><rect x="3457.7050000000013" y="5.0" width="59.61578125" height="40" stroke="black" fill="white" stroke-width="1" /><text x="3487.512890625001" y="25.0" dominant-baseline="middle" text-anchor="middle" font-size="14px" font-family="Arial">Rz(x_5)</text><circle cx="3557.3207812500013" cy="25.0" r="10.0" /><rect x="3537.3207812500013" y="355.0" width="40" height="40" stroke="black" fill="white" stroke-width="1" /><text x="3557.3207812500013" y="375.0" dominant-baseline="middle" text-anchor="middle" font-size="18px" font-family="Arial">X</text><circle cx="3617.3207812500013" cy="75.0" r="10.0" /><rect x="3597.3207812500013" y="355.0" width="40" height="40" stroke="black" fill="white" stroke-width="1" /><text x="3617.3207812500013" y="375.0" dominant-baseline="middle" text-anchor="middle" font-size="18px" font-family="Arial">X</text><circle cx="3677.3207812500013" cy="125.0" r="10.0" /><rect x="3657.3207812500013" y="355.0" width="40" height="40" stroke="black" fill="white" stroke-width="1" /><text x="3677.3207812500013" y="375.0" dominant-baseline="middle" text-anchor="middle" font-size="18px" font-family="Arial">X</text><circle cx="3737.3207812500013" cy="175.0" r="10.0" /><rect x="3717.3207812500013" y="355.0" width="40" height="40" stroke="black" fill="white" stroke-width="1" /><text x="3737.3207812500013" y="375.0" dominant-baseline="middle" text-anchor="middle" font-size="18px" font-family="Arial">X</text><circle cx="3797.3207812500013" cy="225.0" r="10.0" /><rect x="3777.3207812500013" y="355.0" width="40" height="40" stroke="black" fill="white" stroke-width="1" /><text x="3797.3207812500013" y="375.0" dominant-baseline="middle" text-anchor="middle" font-size="18px" font-family="Arial">X</text><circle cx="3857.3207812500013" cy="275.0" r="10.0" /><rect x="3837.3207812500013" y="355.0" width="40" height="40" stroke="black" fill="white" stroke-width="1" /><text x="3857.3207812500013" y="375.0" dominant-baseline="middle" text-anchor="middle" font-size="18px" font-family="Arial">X</text><circle cx="3917.3207812500013" cy="325.0" r="10.0" /><rect x="3897.3207812500013" y="355.0" width="40" height="40" stroke="black" fill="white" stroke-width="1" /><text x="3917.3207812500013" y="375.0" dominant-baseline="middle" text-anchor="middle" font-size="18px" font-family="Arial">X</text><circle cx="3987.128671875001" cy="25.0" r="10.0" /><rect x="3957.3207812500013" y="55.0" width="59.61578125" height="40" stroke="black" fill="white" stroke-width="1" /><text x="3987.128671875001" y="75.0" dominant-baseline="middle" text-anchor="middle" font-size="14px" font-family="Arial">Rz(x_6)</text><circle cx="4066.744453125001" cy="75.0" r="10.0" /><rect x="4036.9365625000014" y="105.0" width="59.61578125" height="40" stroke="black" fill="white" stroke-width="1" /><text x="4066.744453125001" y="125.0" dominant-baseline="middle" text-anchor="middle" font-size="14px" font-family="Arial">Rz(x_6)</text><circle cx="4146.360234375002" cy="125.0" r="10.0" /><rect x="4116.5523437500015" y="155.0" width="59.61578125" height="40" stroke="black" fill="white" stroke-width="1" /><text x="4146.360234375002" y="175.0" dominant-baseline="middle" text-anchor="middle" font-size="14px" font-family="Arial">Rz(x_6)</text><circle cx="4225.976015625001" cy="175.0" r="10.0" /><rect x="4196.168125000001" y="5.0" width="59.61578125" height="40" stroke="black" fill="white" stroke-width="1" /><text x="4225.976015625001" y="25.0" dominant-baseline="middle" text-anchor="middle" font-size="14px" font-family="Arial">Rz(x_6)</text><circle cx="4295.783906250001" cy="25.0" r="10.0" /><rect x="4275.783906250001" y="55.0" width="40" height="40" stroke="black" fill="white" stroke-width="1" /><text x="4295.783906250001" y="75.0" dominant-baseline="middle" text-anchor="middle" font-size="18px" font-family="Arial">X</text><circle cx="4355.783906250001" cy="125.0" r="10.0" /><rect x="4335.783906250001" y="155.0" width="40" height="40" stroke="black" fill="white" stroke-width="1" /><text x="4355.783906250001" y="175.0" dominant-baseline="middle" text-anchor="middle" font-size="18px" font-family="Arial">X</text><circle cx="4425.591796875001" cy="75.0" r="10.0" /><rect x="4395.783906250001" y="155.0" width="59.61578125" height="40" stroke="black" fill="white" stroke-width="1" /><text x="4425.591796875001" y="175.0" dominant-baseline="middle" text-anchor="middle" font-size="14px" font-family="Arial">Rz(x_7)</text><circle cx="4495.3996875" cy="75.0" r="10.0" /><rect x="4475.3996875" y="155.0" width="40" height="40" stroke="black" fill="white" stroke-width="1" /><text x="4495.3996875" y="175.0" dominant-baseline="middle" text-anchor="middle" font-size="18px" font-family="Arial">X</text></svg>