<svg xmlns="http://www.w3.org/2000/svg" width="1555.0051562500003" height="400.0"><line x1="30.0" x2="1525.0051562500003" y1="25.0" y2="25.0" stroke="#1967d2" stroke-width="1" /><line x1="30.0" x2="1525.0051562500003" y1="75.0" y2="75.0" stroke="#1967d2" stroke-width="1" /><line x1="30.0" x2="1525.0051562500003" y1="125.0" y2="125.0" stroke="#1967d2" stroke-width="1" /><line x1="30.0" x2="1525.0051562500003" y1="175.0" y2="175.0" stroke="#1967d2" stroke-width="1" /><line x1="30.0" x2="1525.0051562500003" y1="225.0" y2="225.0" stroke="#1967d2" stroke-width="1" /><line x1="30.0" x2="1525.0051562500003" y1="275.0" y2="275.0" stroke="#1967d2" stroke-width="1" /><line x1="30.0" x2="1525.0051562500003" y1="325.0" y2="325.0" stroke="#1967d2" stroke-width="1" /><line x1="30.0" x2="1525.0051562500003" y1="375.0" y2="375.0" stroke="#1967d2" stroke-width="1" /><line x1="99.807890625" x2="99.807890625" y1="25.0" y2="75.0" stroke="black" stroke-width="3" /><line x1="179.423671875" x2="179.423671875" y1="75.0" y2="125.0" stroke="black" stroke-width="3" /><line x1="259.039453125" x2="259.039453125" y1="125.0" y2="175.0" stroke="black" stroke-width="3" /><line x1="338.65523437499996" x2="338.65523437499996" y1="175.0" y2="225.0" stroke="black" stroke-width="3" /><line x1="418.271015625" x2="418.271015625" y1="225.0" y2="275.0" stroke="black" stroke-width="3" /><line x1="497.88679687499996" x2="497.88679687499996" y1="275.0" y2="325.0" stroke="black" stroke-width="3" /><line x1="577.502578125" x2="577.502578125" y1="325.0" y2="375.0" stroke="black" stroke-width="3" /><line x1="657.118359375" x2="657.118359375" y1="25.0" y2="375.0" stroke="black" stroke-width="3" /><line x1="726.92625" x2="726.92625" y1="25.0" y2="375.0" stroke="black" stroke-width="3" /><line x1="786.92625" x2="786.92625" y1="75.0" y2="325.0" stroke="black" stroke-width="3" /><line x1="846.92625" x2="846.92625" y1="125.0" y2="275.0" stroke="black" stroke-width="3" /><line x1="906.92625" x2="906.92625" y1="175.0" y2="225.0" stroke="black" stroke-width="3" /><line x1="976.734140625" x2="976.734140625" y1="25.0" y2="75.0" stroke="black" stroke-width="3" /><line x1="1056.349921875" x2="1056.349921875" y1="75.0" y2="125.0" stroke="black" stroke-width="3" /><line x1="1135.9657031250001" x2="1135.9657031250001" y1="125.0" y2="175.0" stroke="black" stroke-width="3" /><line x1="1215.5814843750002" x2="1215.5814843750002" y1="25.0" y2="175.0" stroke="black" stroke-width="3" /><line x1="1285.3893750000002" x2="1285.3893750000002" y1="25.0" y2="175.0" stroke="black" stroke-width="3" /><line x1="1345.3893750000002" x2="1345.3893750000002" y1="75.0" y2="125.0" stroke="black" stroke-width="3" /><line x1="1415.1972656250002" x2="1415.1972656250002" y1="25.0" y2="75.0" stroke="black" stroke-width="3" /><line x1="1485.0051562500003" x2="1485.0051562500003" y1="25.0" y2="75.0" stroke="black" stroke-width="3" /><rect x="10.0" y="5.0" width="40" height="40" stroke="black" fill="white" stroke-width="0" /><text x="30.0" y="25.0" dominant-baseline="middle" text-anchor="middle" font-size="14px" font-family="Arial">1: </text><rect x="10.0" y="55.0" width="40" height="40" stroke="black" fill="white" stroke-width="0" /><text x="30.0" y="75.0" dominant-baseline="middle" text-anchor="middle" font-size="14px" font-family="Arial">2: </text><rect x="10.0" y="105.0" width="40" height="40" stroke="black" fill="white" stroke-width="0" /><text x="30.0" y="125.0" dominant-baseline="middle" text-anchor="middle" font-size="14px" font-family="Arial">3: </text><rect x="10.0" y="155.0" width="40" height="40" stroke="black" fill="white" stroke-width="0" /><text x="30.0" y="175.0" dominant-baseline="middle" text-anchor="middle" font-size="14px" font-family="Arial">4: </text><rect x="10.0" y="205.0" width="40" height="40" stroke="black" fill="white" stroke-width="0" /><text x="30.0" y="225.0" dominant-baseline="middle" text-anchor="middle" font-size="14px" font-family="Arial">5: </text><rect x="10.0" y="255.0" width="40" height="40" stroke="black" fill="white" stroke-width="0" /><text x="30.0" y="275.0" dominant-baseline="middle" text-anchor="middle" font-size="14px" font-family="Arial">6: </text><rect x="10.0" y="305.0" width="40" height="40" stroke="black" fill="white" stroke-width="0" /><text x="30.0" y="325.0" dominant-baseline="middle" text-anchor="middle" font-size="14px" font-family="Arial">7: </text><rect x="10.0" y="355.0" width="40" height="40" stroke="black" fill="white" stroke-width="0" /><text x="30.0" y="375.0" dominant-baseline="middle" text-anchor="middle" font-size="14px" font-family="Arial">8: </text><circle cx="99.807890625" cy="25.0" r="10.0" /><rect x="70.0" y="55.0" width="59.61578125" height="40" stroke="black" fill="white" stroke-width="1" /><text x="99.807890625" y="75.0" dominant-baseline="middle" text-anchor="middle" font-size="14px" font-family="Arial">Rz(x_0)</text><circle cx="179.423671875" cy="75.0" r="10.0" /><rect x="149.61578125" y="105.0" width="59.61578125" height="40" stroke="black" fill="white" stroke-width="1" /><text x="179.423671875" y="125.0" dominant-baseline="middle" text-anchor="middle" font-size="14px" font-family="Arial">Rz(x_0)</text><circle cx="259.039453125" cy="125.0" r="10.0" /><rect x="229.23156250000002" y="155.0" width="59.61578125" height="40" stroke="black" fill="white" stroke-width="1" /><text x="259.039453125" y="175.0" dominant-baseline="middle" text-anchor="middle" font-size="14px" font-family="Arial">Rz(x_0)</text><circle cx="338.65523437499996" cy="175.0" r="10.0" /><rect x="308.84734374999994" y="205.0" width="59.61578125" height="40" stroke="black" fill="white" stroke-width="1" /><text x="338.65523437499996" y="225.0" dominant-baseline="middle" text-anchor="middle" font-size="14px" font-family="Arial">Rz(x_0)</text><circle cx="418.271015625" cy="225.0" r="10.0" /><rect x="388.463125" y="255.0" width="59.61578125" height="40" stroke="black" fill="white" stroke-width="1" /><text x="418.271015625" y="275.0" dominant-baseline="middle" text-anchor="middle" font-size="14px" font-family="Arial">Rz(x_0)</text><circle cx="497.88679687499996" cy="275.0" r="10.0" /><rect x="468.07890624999993" y="305.0" width="59.61578125" height="40" stroke="black" fill="white" stroke-width="1" /><text x="497.88679687499996" y="325.0" dominant-baseline="middle" text-anchor="middle" font-size="14px" font-family="Arial">Rz(x_0)</text><circle cx="577.502578125" cy="325.0" r="10.0" /><rect x="547.6946875" y="355.0" width="59.61578125" height="40" stroke="black" fill="white" stroke-width="1" /><text x="577.502578125" y="375.0" dominant-baseline="middle" text-anchor="middle" font-size="14px" font-family="Arial">Rz(x_0)</text><circle cx="657.118359375" cy="375.0" r="10.0" /><rect x="627.3104687499999" y="5.0" width="59.61578125" height="40" stroke="black" fill="white" stroke-width="1" /><text x="657.118359375" y="25.0" dominant-baseline="middle" text-anchor="middle" font-size="14px" font-family="Arial">Rz(x_0)</text><circle cx="726.92625" cy="375.0" r="10.0" /><rect x="706.92625" y="5.0" width="40" height="40" stroke="black" fill="white" stroke-width="1" /><text x="726.92625" y="25.0" dominant-baseline="middle" text-anchor="middle" font-size="18px" font-family="Arial">X</text><circle cx="786.92625" cy="325.0" r="10.0" /><rect x="766.92625" y="55.0" width="40" height="40" stroke="black" fill="white" stroke-width="1" /><text x="786.92625" y="75.0" dominant-baseline="middle" text-anchor="middle" font-size="18px" font-family="Arial">X</text><circle cx="846.92625" cy="275.0" r="10.0" /><rect x="826.92625" y="105.0" width="40" height="40" stroke="black" fill="white" stroke-width="1" /><text x="846.92625" y="125.0" dominant-baseline="middle" text-anchor="middle" font-size="18px" font-family="Arial">X</text><circle cx="906.92625" cy="225.0" r="10.0" /><rect x="886.92625" y="155.0" width="40" height="40" stroke="black" fill="white" stroke-width="1" /><text x="906.92625" y="175.0" dominant-baseline="middle" text-anchor="middle" font-size="18px" font-family="Arial">X</text><circle cx="976.734140625" cy="25.0" r="10.0" /><rect x="946.92625" y="55.0" width="59.61578125" height="40" stroke="black" fill="white" stroke-width="1" /><text x="976.734140625" y="75.0" dominant-baseline="middle" text-anchor="middle" font-size="14px" font-family="Arial">Rz(x_1)</text><circle cx="1056.349921875" cy="75.0" r="10.0" /><rect x="1026.54203125" y="105.0" width="59.61578125" height="40" stroke="black" fill="white" stroke-width="1" /><text x="1056.349921875" y="125.0" dominant-baseline="middle" text-anchor="middle" font-size="14px" font-family="Arial">Rz(x_1)</text><circle cx="1135.9657031250001" cy="125.0" r="10.0" /><rect x="1106.1578125" y="155.0" width="59.61578125" height="40" stroke="black" fill="white" stroke-width="1" /><text x="1135.9657031250001" y="175.0" dominant-baseline="middle" text-anchor="middle" font-size="14px" font-family="Arial">Rz(x_1)</text><circle cx="1215.5814843750002" cy="175.0" r="10.0" /><rect x="1185.7735937500001" y="5.0" width="59.61578125" height="40" stroke="black" fill="white" stroke-width="1" /><text x="1215.5814843750002" y="25.0" dominant-baseline="middle" text-anchor="middle" font-size="14px" font-family="Arial">Rz(x_1)</text><circle cx="1285.3893750000002" cy="175.0" r="10.0" /><rect x="1265.3893750000002" y="5.0" width="40" height="40" stroke="black" fill="white" stroke-width="1" /><text x="1285.3893750000002" y="25.0" dominant-baseline="middle" text-anchor="middle" font-size="18px" font-family="Arial">X</text><circle cx="1345.3893750000002" cy="125.0" r="10.0" /><rect x="1325.3893750000002" y="55.0" width="40" height="40" stroke="black" fill="white" stroke-width="1" /><text x="1345.3893750000002" y="75.0" dominant-baseline="middle" text-anchor="middle" font-size="18px" font-family="Arial">X</text><circle cx="1415.1972656250002" cy="25.0" r="10.0" /><rect x="1385.3893750000002" y="55.0" width="59.61578125" height="40" stroke="black" fill="white" stroke-width="1" /><text x="1415.1972656250002" y="75.0" dominant-baseline="middle" text-anchor="middle" font-size="14px" font-family="Arial">Rz(x_2)</text><circle cx="1485.0051562500003" cy="75.0" r="10.0" /><rect x="1465.0051562500003" y="5.0" width="40" height="40" stroke="black" fill="white" stroke-width="1" /><text x="1485.0051562500003" y="25.0" dominant-baseline="middle" text-anchor="middle" font-size="18px" font-family="Arial">X</text></svg>