<svg xmlns="http://www.w3.org/2000/svg" width="8267.475117187485" height="400.0"><line x1="30.0" x2="8237.475117187485" y1="25.0" y2="25.0" stroke="#1967d2" stroke-width="1" /><line x1="30.0" x2="8237.475117187485" y1="75.0" y2="75.0" stroke="#1967d2" stroke-width="1" /><line x1="30.0" x2="8237.475117187485" y1="125.0" y2="125.0" stroke="#1967d2" stroke-width="1" /><line x1="30.0" x2="8237.475117187485" y1="175.0" y2="175.0" stroke="#1967d2" stroke-width="1" /><line x1="30.0" x2="8237.475117187485" y1="225.0" y2="225.0" stroke="#1967d2" stroke-width="1" /><line x1="30.0" x2="8237.475117187485" y1="275.0" y2="275.0" stroke="#1967d2" stroke-width="1" /><line x1="30.0" x2="8237.475117187485" y1="325.0" y2="325.0" stroke="#1967d2" stroke-width="1" /><line x1="30.0" x2="8237.475117187485" y1="375.0" y2="375.0" stroke="#1967d2" stroke-width="1" /><line x1="259.9759765625" x2="259.9759765625" y1="25.0" y2="75.0" stroke="black" stroke-width="3" /><line x1="339.59175781249996" x2="339.59175781249996" y1="25.0" y2="75.0" stroke="black" stroke-width="3" /><line x1="739.5437109375" x2="739.5437109375" y1="75.0" y2="125.0" stroke="black" stroke-width="3" /><line x1="819.1594921875001" x2="819.1594921875001" y1="75.0" y2="125.0" stroke="black" stroke-width="3" /><line x1="1219.1114453125003" x2="1219.1114453125003" y1="125.0" y2="175.0" stroke="black" stroke-width="3" /><line x1="1298.7272265625004" x2="1298.7272265625004" y1="125.0" y2="175.0" stroke="black" stroke-width="3" /><line x1="1698.6791796875007" x2="1698.6791796875007" y1="175.0" y2="225.0" stroke="black" stroke-width="3" /><line x1="1778.2949609375007" x2="1778.2949609375007" y1="175.0" y2="225.0" stroke="black" stroke-width="3" /><line x1="2178.2469140625008" x2="2178.2469140625008" y1="225.0" y2="275.0" stroke="black" stroke-width="3" /><line x1="2257.862695312501" x2="2257.862695312501" y1="225.0" y2="275.0" stroke="black" stroke-width="3" /><line x1="2657.814648437501" x2="2657.814648437501" y1="275.0" y2="325.0" stroke="black" stroke-width="3" /><line x1="2737.430429687501" x2="2737.430429687501" y1="275.0" y2="325.0" stroke="black" stroke-width="3" /><line x1="3137.3823828125014" x2="3137.3823828125014" y1="325.0" y2="375.0" stroke="black" stroke-width="3" /><line x1="3216.9981640625015" x2="3216.9981640625015" y1="325.0" y2="375.0" stroke="black" stroke-width="3" /><line x1="3616.9501171875017" x2="3616.9501171875017" y1="25.0" y2="375.0" stroke="black" stroke-width="3" /><line x1="3696.565898437502" x2="3696.565898437502" y1="25.0" y2="375.0" stroke="black" stroke-width="3" /><line x1="3940.803378906252" x2="3940.803378906252" y1="25.0" y2="375.0" stroke="black" stroke-width="3" /><line x1="4089.794648437502" x2="4089.794648437502" y1="25.0" y2="375.0" stroke="black" stroke-width="3" /><line x1="4178.785917968752" x2="4178.785917968752" y1="75.0" y2="325.0" stroke="black" stroke-width="3" /><line x1="4327.777187500002" x2="4327.777187500002" y1="75.0" y2="325.0" stroke="black" stroke-width="3" /><line x1="4416.768457031251" x2="4416.768457031251" y1="125.0" y2="275.0" stroke="black" stroke-width="3" /><line x1="4565.759726562501" x2="4565.759726562501" y1="125.0" y2="275.0" stroke="black" stroke-width="3" /><line x1="4654.7509960937505" x2="4654.7509960937505" y1="175.0" y2="225.0" stroke="black" stroke-width="3" /><line x1="4803.742265625" x2="4803.742265625" y1="175.0" y2="225.0" stroke="black" stroke-width="3" /><line x1="5070.716074218749" x2="5070.716074218749" y1="25.0" y2="75.0" stroke="black" stroke-width="3" /><line x1="5159.2390820312485" x2="5159.2390820312485" y1="25.0" y2="75.0" stroke="black" stroke-width="3" /><line x1="5603.7271679687465" x2="5603.7271679687465" y1="75.0" y2="125.0" stroke="black" stroke-width="3" /><line x1="5692.250175781246" x2="5692.250175781246" y1="75.0" y2="125.0" stroke="black" stroke-width="3" /><line x1="6136.738261718744" x2="6136.738261718744" y1="125.0" y2="175.0" stroke="black" stroke-width="3" /><line x1="6225.261269531244" x2="6225.261269531244" y1="125.0" y2="175.0" stroke="black" stroke-width="3" /><line x1="6669.749355468742" x2="6669.749355468742" y1="25.0" y2="175.0" stroke="black" stroke-width="3" /><line x1="6758.272363281241" x2="6758.272363281241" y1="25.0" y2="175.0" stroke="black" stroke-width="3" /><line x1="7024.77791015624" x2="7024.77791015624" y1="25.0" y2="175.0" stroke="black" stroke-width="3" /><line x1="7173.76917968749" x2="7173.76917968749" y1="25.0" y2="175.0" stroke="black" stroke-width="3" /><line x1="7262.760449218739" x2="7262.760449218739" y1="75.0" y2="125.0" stroke="black" stroke-width="3" /><line x1="7411.751718749989" x2="7411.751718749989" y1="75.0" y2="125.0" stroke="black" stroke-width="3" /><line x1="7678.725527343738" x2="7678.725527343738" y1="25.0" y2="75.0" stroke="black" stroke-width="3" /><line x1="7767.248535156237" x2="7767.248535156237" y1="25.0" y2="75.0" stroke="black" stroke-width="3" /><line x1="8033.754082031236" x2="8033.754082031236" y1="25.0" y2="75.0" stroke="black" stroke-width="3" /><line x1="8182.745351562486" x2="8182.745351562486" y1="25.0" y2="75.0" stroke="black" stroke-width="3" /><rect x="10.0" y="5.0" width="40" height="40" stroke="black" fill="white" stroke-width="0" /><text x="30.0" y="25.0" dominant-baseline="middle" text-anchor="middle" font-size="14px" font-family="Arial">1: </text><rect x="10.0" y="55.0" width="40" height="40" stroke="black" fill="white" stroke-width="0" /><text x="30.0" y="75.0" dominant-baseline="middle" text-anchor="middle" font-size="14px" font-family="Arial">2: </text><rect x="10.0" y="105.0" width="40" height="40" stroke="black" fill="white" stroke-width="0" /><text x="30.0" y="125.0" dominant-baseline="middle" text-anchor="middle" font-size="14px" font-family="Arial">3: </text><rect x="10.0" y="155.0" width="40" height="40" stroke="black" fill="white" stroke-width="0" /><text x="30.0" y="175.0" dominant-baseline="middle" text-anchor="middle" font-size="14px" font-family="Arial">4: </text><rect x="10.0" y="205.0" width="40" height="40" stroke="black" fill="white" stroke-width="0" /><text x="30.0" y="225.0" dominant-baseline="middle" text-anchor="middle" font-size="14px" font-family="Arial">5: </text><rect x="10.0" y="255.0" width="40" height="40" stroke="black" fill="white" stroke-width="0" /><text x="30.0" y="275.0" dominant-baseline="middle" text-anchor="middle" font-size="14px" font-family="Arial">6: </text><rect x="10.0" y="305.0" width="40" height="40" stroke="black" fill="white" stroke-width="0" /><text x="30.0" y="325.0" dominant-baseline="middle" text-anchor="middle" font-size="14px" font-family="Arial">7: </text><rect x="10.0" y="355.0" width="40" height="40" stroke="black" fill="white" stroke-width="0" /><text x="30.0" y="375.0" dominant-baseline="middle" text-anchor="middle" font-size="14px" font-family="Arial">8: </text><rect x="70.0" y="5.0" width="60.5523046875" height="40" stroke="black" fill="white" stroke-width="1" /><text x="100.27615234375" y="25.0" dominant-baseline="middle" text-anchor="middle" font-size="14px" font-family="Arial">Rx(x_0)</text><rect x="70.0" y="55.0" width="60.5523046875" height="40" stroke="black" fill="white" stroke-width="1" /><text x="100.27615234375" y="75.0" dominant-baseline="middle" text-anchor="middle" font-size="14px" font-family="Arial">Rx(x_1)</text><rect x="150.5523046875" y="5.0" width="59.61578125" height="40" stroke="black" fill="white" stroke-width="1" /><text x="180.3601953125" y="25.0" dominant-baseline="middle" text-anchor="middle" font-size="14px" font-family="Arial">Rz(x_2)</text><rect x="150.5523046875" y="55.0" width="59.61578125" height="40" stroke="black" fill="white" stroke-width="1" /><text x="180.3601953125" y="75.0" dominant-baseline="middle" text-anchor="middle" font-size="14px" font-family="Arial">Rz(x_3)</text><circle cx="259.9759765625" cy="25.0" r="10.0" /><rect x="230.16808593750002" y="55.0" width="59.61578125" height="40" stroke="black" fill="white" stroke-width="1" /><text x="259.9759765625" y="75.0" dominant-baseline="middle" text-anchor="middle" font-size="14px" font-family="Arial">Rz(x_4)</text><circle cx="339.59175781249996" cy="75.0" r="10.0" /><rect x="309.78386718749994" y="5.0" width="59.61578125" height="40" stroke="black" fill="white" stroke-width="1" /><text x="339.59175781249996" y="25.0" dominant-baseline="middle" text-anchor="middle" font-size="14px" font-family="Arial">Rz(x_5)</text><rect x="389.3996484375" y="5.0" width="60.5523046875" height="40" stroke="black" fill="white" stroke-width="1" /><text x="419.67580078125" y="25.0" dominant-baseline="middle" text-anchor="middle" font-size="14px" font-family="Arial">Rx(x_6)</text><rect x="389.3996484375" y="55.0" width="60.5523046875" height="40" stroke="black" fill="white" stroke-width="1" /><text x="419.67580078125" y="75.0" dominant-baseline="middle" text-anchor="middle" font-size="14px" font-family="Arial">Rx(x_7)</text><rect x="469.95195312499993" y="5.0" width="59.61578125" height="40" stroke="black" fill="white" stroke-width="1" /><text x="499.75984374999996" y="25.0" dominant-baseline="middle" text-anchor="middle" font-size="14px" font-family="Arial">Rz(x_8)</text><rect x="469.95195312499993" y="55.0" width="59.61578125" height="40" stroke="black" fill="white" stroke-width="1" /><text x="499.75984374999996" y="75.0" dominant-baseline="middle" text-anchor="middle" font-size="14px" font-family="Arial">Rz(x_9)</text><rect x="549.567734375" y="55.0" width="60.5523046875" height="40" stroke="black" fill="white" stroke-width="1" /><text x="579.84388671875" y="75.0" dominant-baseline="middle" text-anchor="middle" font-size="14px" font-family="Arial">Rx(x_0)</text><rect x="549.567734375" y="105.0" width="60.5523046875" height="40" stroke="black" fill="white" stroke-width="1" /><text x="579.84388671875" y="125.0" dominant-baseline="middle" text-anchor="middle" font-size="14px" font-family="Arial">Rx(x_1)</text><rect x="630.1200390624999" y="55.0" width="59.61578125" height="40" stroke="black" fill="white" stroke-width="1" /><text x="659.9279296875" y="75.0" dominant-baseline="middle" text-anchor="middle" font-size="14px" font-family="Arial">Rz(x_2)</text><rect x="630.1200390624999" y="105.0" width="59.61578125" height="40" stroke="black" fill="white" stroke-width="1" /><text x="659.9279296875" y="125.0" dominant-baseline="middle" text-anchor="middle" font-size="14px" font-family="Arial">Rz(x_3)</text><circle cx="739.5437109375" cy="75.0" r="10.0" /><rect x="709.7358203125" y="105.0" width="59.61578125" height="40" stroke="black" fill="white" stroke-width="1" /><text x="739.5437109375" y="125.0" dominant-baseline="middle" text-anchor="middle" font-size="14px" font-family="Arial">Rz(x_4)</text><circle cx="819.1594921875001" cy="125.0" r="10.0" /><rect x="789.3516015625" y="55.0" width="59.61578125" height="40" stroke="black" fill="white" stroke-width="1" /><text x="819.1594921875001" y="75.0" dominant-baseline="middle" text-anchor="middle" font-size="14px" font-family="Arial">Rz(x_5)</text><rect x="868.9673828125001" y="55.0" width="60.5523046875" height="40" stroke="black" fill="white" stroke-width="1" /><text x="899.2435351562501" y="75.0" dominant-baseline="middle" text-anchor="middle" font-size="14px" font-family="Arial">Rx(x_6)</text><rect x="868.9673828125001" y="105.0" width="60.5523046875" height="40" stroke="black" fill="white" stroke-width="1" /><text x="899.2435351562501" y="125.0" dominant-baseline="middle" text-anchor="middle" font-size="14px" font-family="Arial">Rx(x_7)</text><rect x="949.5196875000001" y="55.0" width="59.61578125" height="40" stroke="black" fill="white" stroke-width="1" /><text x="979.3275781250002" y="75.0" dominant-baseline="middle" text-anchor="middle" font-size="14px" font-family="Arial">Rz(x_8)</text><rect x="949.5196875000001" y="105.0" width="59.61578125" height="40" stroke="black" fill="white" stroke-width="1" /><text x="979.3275781250002" y="125.0" dominant-baseline="middle" text-anchor="middle" font-size="14px" font-family="Arial">Rz(x_9)</text><rect x="1029.1354687500002" y="105.0" width="60.5523046875" height="40" stroke="black" fill="white" stroke-width="1" /><text x="1059.4116210937502" y="125.0" dominant-baseline="middle" text-anchor="middle" font-size="14px" font-family="Arial">Rx(x_0)</text><rect x="1029.1354687500002" y="155.0" width="60.5523046875" height="40" stroke="black" fill="white" stroke-width="1" /><text x="1059.4116210937502" y="175.0" dominant-baseline="middle" text-anchor="middle" font-size="14px" font-family="Arial">Rx(x_1)</text><rect x="1109.6877734375003" y="105.0" width="59.61578125" height="40" stroke="black" fill="white" stroke-width="1" /><text x="1139.4956640625003" y="125.0" dominant-baseline="middle" text-anchor="middle" font-size="14px" font-family="Arial">Rz(x_2)</text><rect x="1109.6877734375003" y="155.0" width="59.61578125" height="40" stroke="black" fill="white" stroke-width="1" /><text x="1139.4956640625003" y="175.0" dominant-baseline="middle" text-anchor="middle" font-size="14px" font-family="Arial">Rz(x_3)</text><circle cx="1219.1114453125003" cy="125.0" r="10.0" /><rect x="1189.3035546875003" y="155.0" width="59.61578125" height="40" stroke="black" fill="white" stroke-width="1" /><text x="1219.1114453125003" y="175.0" dominant-baseline="middle" text-anchor="middle" font-size="14px" font-family="Arial">Rz(x_4)</text><circle cx="1298.7272265625004" cy="175.0" r="10.0" /><rect x="1268.9193359375004" y="105.0" width="59.61578125" height="40" stroke="black" fill="white" stroke-width="1" /><text x="1298.7272265625004" y="125.0" dominant-baseline="middle" text-anchor="middle" font-size="14px" font-family="Arial">Rz(x_5)</text><rect x="1348.5351171875004" y="105.0" width="60.5523046875" height="40" stroke="black" fill="white" stroke-width="1" /><text x="1378.8112695312504" y="125.0" dominant-baseline="middle" text-anchor="middle" font-size="14px" font-family="Arial">Rx(x_6)</text><rect x="1348.5351171875004" y="155.0" width="60.5523046875" height="40" stroke="black" fill="white" stroke-width="1" /><text x="1378.8112695312504" y="175.0" dominant-baseline="middle" text-anchor="middle" font-size="14px" font-family="Arial">Rx(x_7)</text><rect x="1429.0874218750005" y="105.0" width="59.61578125" height="40" stroke="black" fill="white" stroke-width="1" /><text x="1458.8953125000005" y="125.0" dominant-baseline="middle" text-anchor="middle" font-size="14px" font-family="Arial">Rz(x_8)</text><rect x="1429.0874218750005" y="155.0" width="59.61578125" height="40" stroke="black" fill="white" stroke-width="1" /><text x="1458.8953125000005" y="175.0" dominant-baseline="middle" text-anchor="middle" font-size="14px" font-family="Arial">Rz(x_9)</text><rect x="1508.7032031250005" y="155.0" width="60.5523046875" height="40" stroke="black" fill="white" stroke-width="1" /><text x="1538.9793554687506" y="175.0" dominant-baseline="middle" text-anchor="middle" font-size="14px" font-family="Arial">Rx(x_0)</text><rect x="1508.7032031250005" y="205.0" width="60.5523046875" height="40" stroke="black" fill="white" stroke-width="1" /><text x="1538.9793554687506" y="225.0" dominant-baseline="middle" text-anchor="middle" font-size="14px" font-family="Arial">Rx(x_1)</text><rect x="1589.2555078125006" y="155.0" width="59.61578125" height="40" stroke="black" fill="white" stroke-width="1" /><text x="1619.0633984375006" y="175.0" dominant-baseline="middle" text-anchor="middle" font-size="14px" font-family="Arial">Rz(x_2)</text><rect x="1589.2555078125006" y="205.0" width="59.61578125" height="40" stroke="black" fill="white" stroke-width="1" /><text x="1619.0633984375006" y="225.0" dominant-baseline="middle" text-anchor="middle" font-size="14px" font-family="Arial">Rz(x_3)</text><circle cx="1698.6791796875007" cy="175.0" r="10.0" /><rect x="1668.8712890625006" y="205.0" width="59.61578125" height="40" stroke="black" fill="white" stroke-width="1" /><text x="1698.6791796875007" y="225.0" dominant-baseline="middle" text-anchor="middle" font-size="14px" font-family="Arial">Rz(x_4)</text><circle cx="1778.2949609375007" cy="225.0" r="10.0" /><rect x="1748.4870703125007" y="155.0" width="59.61578125" height="40" stroke="black" fill="white" stroke-width="1" /><text x="1778.2949609375007" y="175.0" dominant-baseline="middle" text-anchor="middle" font-size="14px" font-family="Arial">Rz(x_5)</text><rect x="1828.1028515625007" y="155.0" width="60.5523046875" height="40" stroke="black" fill="white" stroke-width="1" /><text x="1858.3790039062508" y="175.0" dominant-baseline="middle" text-anchor="middle" font-size="14px" font-family="Arial">Rx(x_6)</text><rect x="1828.1028515625007" y="205.0" width="60.5523046875" height="40" stroke="black" fill="white" stroke-width="1" /><text x="1858.3790039062508" y="225.0" dominant-baseline="middle" text-anchor="middle" font-size="14px" font-family="Arial">Rx(x_7)</text><rect x="1908.6551562500008" y="155.0" width="59.61578125" height="40" stroke="black" fill="white" stroke-width="1" /><text x="1938.4630468750008" y="175.0" dominant-baseline="middle" text-anchor="middle" font-size="14px" font-family="Arial">Rz(x_8)</text><rect x="1908.6551562500008" y="205.0" width="59.61578125" height="40" stroke="black" fill="white" stroke-width="1" /><text x="1938.4630468750008" y="225.0" dominant-baseline="middle" text-anchor="middle" font-size="14px" font-family="Arial">Rz(x_9)</text><rect x="1988.2709375000009" y="205.0" width="60.5523046875" height="40" stroke="black" fill="white" stroke-width="1" /><text x="2018.5470898437509" y="225.0" dominant-baseline="middle" text-anchor="middle" font-size="14px" font-family="Arial">Rx(x_0)</text><rect x="1988.2709375000009" y="255.0" width="60.5523046875" height="40" stroke="black" fill="white" stroke-width="1" /><text x="2018.5470898437509" y="275.0" dominant-baseline="middle" text-anchor="middle" font-size="14px" font-family="Arial">Rx(x_1)</text><rect x="2068.823242187501" y="205.0" width="59.61578125" height="40" stroke="black" fill="white" stroke-width="1" /><text x="2098.6311328125007" y="225.0" dominant-baseline="middle" text-anchor="middle" font-size="14px" font-family="Arial">Rz(x_2)</text><rect x="2068.823242187501" y="255.0" width="59.61578125" height="40" stroke="black" fill="white" stroke-width="1" /><text x="2098.6311328125007" y="275.0" dominant-baseline="middle" text-anchor="middle" font-size="14px" font-family="Arial">Rz(x_3)</text><circle cx="2178.2469140625008" cy="225.0" r="10.0" /><rect x="2148.439023437501" y="255.0" width="59.61578125" height="40" stroke="black" fill="white" stroke-width="1" /><text x="2178.2469140625008" y="275.0" dominant-baseline="middle" text-anchor="middle" font-size="14px" font-family="Arial">Rz(x_4)</text><circle cx="2257.862695312501" cy="275.0" r="10.0" /><rect x="2228.054804687501" y="205.0" width="59.61578125" height="40" stroke="black" fill="white" stroke-width="1" /><text x="2257.862695312501" y="225.0" dominant-baseline="middle" text-anchor="middle" font-size="14px" font-family="Arial">Rz(x_5)</text><rect x="2307.670585937501" y="205.0" width="60.5523046875" height="40" stroke="black" fill="white" stroke-width="1" /><text x="2337.946738281251" y="225.0" dominant-baseline="middle" text-anchor="middle" font-size="14px" font-family="Arial">Rx(x_6)</text><rect x="2307.670585937501" y="255.0" width="60.5523046875" height="40" stroke="black" fill="white" stroke-width="1" /><text x="2337.946738281251" y="275.0" dominant-baseline="middle" text-anchor="middle" font-size="14px" font-family="Arial">Rx(x_7)</text><rect x="2388.222890625001" y="205.0" width="59.61578125" height="40" stroke="black" fill="white" stroke-width="1" /><text x="2418.030781250001" y="225.0" dominant-baseline="middle" text-anchor="middle" font-size="14px" font-family="Arial">Rz(x_8)</text><rect x="2388.222890625001" y="255.0" width="59.61578125" height="40" stroke="black" fill="white" stroke-width="1" /><text x="2418.030781250001" y="275.0" dominant-baseline="middle" text-anchor="middle" font-size="14px" font-family="Arial">Rz(x_9)</text><rect x="2467.838671875001" y="255.0" width="60.5523046875" height="40" stroke="black" fill="white" stroke-width="1" /><text x="2498.114824218751" y="275.0" dominant-baseline="middle" text-anchor="middle" font-size="14px" font-family="Arial">Rx(x_0)</text><rect x="2467.838671875001" y="305.0" width="60.5523046875" height="40" stroke="black" fill="white" stroke-width="1" /><text x="2498.114824218751" y="325.0" dominant-baseline="middle" text-anchor="middle" font-size="14px" font-family="Arial">Rx(x_1)</text><rect x="2548.3909765625012" y="255.0" width="59.61578125" height="40" stroke="black" fill="white" stroke-width="1" /><text x="2578.198867187501" y="275.0" dominant-baseline="middle" text-anchor="middle" font-size="14px" font-family="Arial">Rz(x_2)</text><rect x="2548.3909765625012" y="305.0" width="59.61578125" height="40" stroke="black" fill="white" stroke-width="1" /><text x="2578.198867187501" y="325.0" dominant-baseline="middle" text-anchor="middle" font-size="14px" font-family="Arial">Rz(x_3)</text><circle cx="2657.814648437501" cy="275.0" r="10.0" /><rect x="2628.0067578125013" y="305.0" width="59.61578125" height="40" stroke="black" fill="white" stroke-width="1" /><text x="2657.814648437501" y="325.0" dominant-baseline="middle" text-anchor="middle" font-size="14px" font-family="Arial">Rz(x_4)</text><circle cx="2737.430429687501" cy="325.0" r="10.0" /><rect x="2707.6225390625013" y="255.0" width="59.61578125" height="40" stroke="black" fill="white" stroke-width="1" /><text x="2737.430429687501" y="275.0" dominant-baseline="middle" text-anchor="middle" font-size="14px" font-family="Arial">Rz(x_5)</text><rect x="2787.2383203125014" y="255.0" width="60.5523046875" height="40" stroke="black" fill="white" stroke-width="1" /><text x="2817.514472656251" y="275.0" dominant-baseline="middle" text-anchor="middle" font-size="14px" font-family="Arial">Rx(x_6)</text><rect x="2787.2383203125014" y="305.0" width="60.5523046875" height="40" stroke="black" fill="white" stroke-width="1" /><text x="2817.514472656251" y="325.0" dominant-baseline="middle" text-anchor="middle" font-size="14px" font-family="Arial">Rx(x_7)</text><rect x="2867.7906250000015" y="255.0" width="59.61578125" height="40" stroke="black" fill="white" stroke-width="1" /><text x="2897.5985156250013" y="275.0" dominant-baseline="middle" text-anchor="middle" font-size="14px" font-family="Arial">Rz(x_8)</text><rect x="2867.7906250000015" y="305.0" width="59.61578125" height="40" stroke="black" fill="white" stroke-width="1" /><text x="2897.5985156250013" y="325.0" dominant-baseline="middle" text-anchor="middle" font-size="14px" font-family="Arial">Rz(x_9)</text><rect x="2947.4064062500015" y="305.0" width="60.5523046875" height="40" stroke="black" fill="white" stroke-width="1" /><text x="2977.6825585937513" y="325.0" dominant-baseline="middle" text-anchor="middle" font-size="14px" font-family="Arial">Rx(x_0)</text><rect x="2947.4064062500015" y="355.0" width="60.5523046875" height="40" stroke="black" fill="white" stroke-width="1" /><text x="2977.6825585937513" y="375.0" dominant-baseline="middle" text-anchor="middle" font-size="14px" font-family="Arial">Rx(x_1)</text><rect x="3027.9587109375016" y="305.0" width="59.61578125" height="40" stroke="black" fill="white" stroke-width="1" /><text x="3057.7666015625014" y="325.0" dominant-baseline="middle" text-anchor="middle" font-size="14px" font-family="Arial">Rz(x_2)</text><rect x="3027.9587109375016" y="355.0" width="59.61578125" height="40" stroke="black" fill="white" stroke-width="1" /><text x="3057.7666015625014" y="375.0" dominant-baseline="middle" text-anchor="middle" font-size="14px" font-family="Arial">Rz(x_3)</text><circle cx="3137.3823828125014" cy="325.0" r="10.0" /><rect x="3107.5744921875016" y="355.0" width="59.61578125" height="40" stroke="black" fill="white" stroke-width="1" /><text x="3137.3823828125014" y="375.0" dominant-baseline="middle" text-anchor="middle" font-size="14px" font-family="Arial">Rz(x_4)</text><circle cx="3216.9981640625015" cy="375.0" r="10.0" /><rect x="3187.1902734375017" y="305.0" width="59.61578125" height="40" stroke="black" fill="white" stroke-width="1" /><text x="3216.9981640625015" y="325.0" dominant-baseline="middle" text-anchor="middle" font-size="14px" font-family="Arial">Rz(x_5)</text><rect x="3266.8060546875017" y="305.0" width="60.5523046875" height="40" stroke="black" fill="white" stroke-width="1" /><text x="3297.0822070312515" y="325.0" dominant-baseline="middle" text-anchor="middle" font-size="14px" font-family="Arial">Rx(x_6)</text><rect x="3266.8060546875017" y="355.0" width="60.5523046875" height="40" stroke="black" fill="white" stroke-width="1" /><text x="3297.0822070312515" y="375.0" dominant-baseline="middle" text-anchor="middle" font-size="14px" font-family="Arial">Rx(x_7)</text><rect x="3347.358359375002" y="305.0" width="59.61578125" height="40" stroke="black" fill="white" stroke-width="1" /><text x="3377.1662500000016" y="325.0" dominant-baseline="middle" text-anchor="middle" font-size="14px" font-family="Arial">Rz(x_8)</text><rect x="3347.358359375002" y="355.0" width="59.61578125" height="40" stroke="black" fill="white" stroke-width="1" /><text x="3377.1662500000016" y="375.0" dominant-baseline="middle" text-anchor="middle" font-size="14px" font-family="Arial">Rz(x_9)</text><rect x="3426.974140625002" y="355.0" width="60.5523046875" height="40" stroke="black" fill="white" stroke-width="1" /><text x="3457.2502929687516" y="375.0" dominant-baseline="middle" text-anchor="middle" font-size="14px" font-family="Arial">Rx(x_0)</text><rect x="3426.974140625002" y="5.0" width="60.5523046875" height="40" stroke="black" fill="white" stroke-width="1" /><text x="3457.2502929687516" y="25.0" dominant-baseline="middle" text-anchor="middle" font-size="14px" font-family="Arial">Rx(x_1)</text><rect x="3507.526445312502" y="355.0" width="59.61578125" height="40" stroke="black" fill="white" stroke-width="1" /><text x="3537.3343359375017" y="375.0" dominant-baseline="middle" text-anchor="middle" font-size="14px" font-family="Arial">Rz(x_2)</text><rect x="3507.526445312502" y="5.0" width="59.61578125" height="40" stroke="black" fill="white" stroke-width="1" /><text x="3537.3343359375017" y="25.0" dominant-baseline="middle" text-anchor="middle" font-size="14px" font-family="Arial">Rz(x_3)</text><circle cx="3616.9501171875017" cy="375.0" r="10.0" /><rect x="3587.142226562502" y="5.0" width="59.61578125" height="40" stroke="black" fill="white" stroke-width="1" /><text x="3616.9501171875017" y="25.0" dominant-baseline="middle" text-anchor="middle" font-size="14px" font-family="Arial">Rz(x_4)</text><circle cx="3696.565898437502" cy="25.0" r="10.0" /><rect x="3666.758007812502" y="355.0" width="59.61578125" height="40" stroke="black" fill="white" stroke-width="1" /><text x="3696.565898437502" y="375.0" dominant-baseline="middle" text-anchor="middle" font-size="14px" font-family="Arial">Rz(x_5)</text><rect x="3746.373789062502" y="355.0" width="60.5523046875" height="40" stroke="black" fill="white" stroke-width="1" /><text x="3776.649941406252" y="375.0" dominant-baseline="middle" text-anchor="middle" font-size="14px" font-family="Arial">Rx(x_6)</text><rect x="3746.373789062502" y="5.0" width="60.5523046875" height="40" stroke="black" fill="white" stroke-width="1" /><text x="3776.649941406252" y="25.0" dominant-baseline="middle" text-anchor="middle" font-size="14px" font-family="Arial">Rx(x_7)</text><rect x="3826.926093750002" y="355.0" width="59.61578125" height="40" stroke="black" fill="white" stroke-width="1" /><text x="3856.733984375002" y="375.0" dominant-baseline="middle" text-anchor="middle" font-size="14px" font-family="Arial">Rz(x_8)</text><rect x="3826.926093750002" y="5.0" width="59.61578125" height="40" stroke="black" fill="white" stroke-width="1" /><text x="3856.733984375002" y="25.0" dominant-baseline="middle" text-anchor="middle" font-size="14px" font-family="Arial">Rz(x_9)</text><circle cx="3940.803378906252" cy="375.0" r="10.0" /><rect x="3906.541875000002" y="5.0" width="68.5230078125" height="40" stroke="black" fill="white" stroke-width="1" /><text x="3940.803378906252" y="25.0" dominant-baseline="middle" text-anchor="middle" font-size="14px" font-family="Arial">Rz(x_10)</text><rect x="3995.064882812502" y="355.0" width="40" height="40" stroke="black" fill="white" stroke-width="1" /><text x="4015.064882812502" y="375.0" dominant-baseline="middle" text-anchor="middle" font-size="18px" font-family="Arial">X</text><circle cx="4089.794648437502" cy="375.0" r="10.0" /><rect x="4055.064882812502" y="5.0" width="69.45953125" height="40" stroke="black" fill="white" stroke-width="1" /><text x="4089.794648437502" y="25.0" dominant-baseline="middle" text-anchor="middle" font-size="14px" font-family="Arial">Rx(x_11)</text><circle cx="4178.785917968752" cy="325.0" r="10.0" /><rect x="4144.524414062502" y="55.0" width="68.5230078125" height="40" stroke="black" fill="white" stroke-width="1" /><text x="4178.785917968752" y="75.0" dominant-baseline="middle" text-anchor="middle" font-size="14px" font-family="Arial">Rz(x_10)</text><rect x="4233.047421875001" y="305.0" width="40" height="40" stroke="black" fill="white" stroke-width="1" /><text x="4253.047421875001" y="325.0" dominant-baseline="middle" text-anchor="middle" font-size="18px" font-family="Arial">X</text><circle cx="4327.777187500002" cy="325.0" r="10.0" /><rect x="4293.047421875001" y="55.0" width="69.45953125" height="40" stroke="black" fill="white" stroke-width="1" /><text x="4327.777187500002" y="75.0" dominant-baseline="middle" text-anchor="middle" font-size="14px" font-family="Arial">Rx(x_11)</text><circle cx="4416.768457031251" cy="275.0" r="10.0" /><rect x="4382.506953125001" y="105.0" width="68.5230078125" height="40" stroke="black" fill="white" stroke-width="1" /><text x="4416.768457031251" y="125.0" dominant-baseline="middle" text-anchor="middle" font-size="14px" font-family="Arial">Rz(x_10)</text><rect x="4471.029960937501" y="255.0" width="40" height="40" stroke="black" fill="white" stroke-width="1" /><text x="4491.029960937501" y="275.0" dominant-baseline="middle" text-anchor="middle" font-size="18px" font-family="Arial">X</text><circle cx="4565.759726562501" cy="275.0" r="10.0" /><rect x="4531.029960937501" y="105.0" width="69.45953125" height="40" stroke="black" fill="white" stroke-width="1" /><text x="4565.759726562501" y="125.0" dominant-baseline="middle" text-anchor="middle" font-size="14px" font-family="Arial">Rx(x_11)</text><circle cx="4654.7509960937505" cy="225.0" r="10.0" /><rect x="4620.4894921875" y="155.0" width="68.5230078125" height="40" stroke="black" fill="white" stroke-width="1" /><text x="4654.7509960937505" y="175.0" dominant-baseline="middle" text-anchor="middle" font-size="14px" font-family="Arial">Rz(x_10)</text><rect x="4709.0125" y="205.0" width="40" height="40" stroke="black" fill="white" stroke-width="1" /><text x="4729.0125" y="225.0" dominant-baseline="middle" text-anchor="middle" font-size="18px" font-family="Arial">X</text><circle cx="4803.742265625" cy="225.0" r="10.0" /><rect x="4769.0125" y="155.0" width="69.45953125" height="40" stroke="black" fill="white" stroke-width="1" /><text x="4803.742265625" y="175.0" dominant-baseline="middle" text-anchor="middle" font-size="14px" font-family="Arial">Rx(x_11)</text><rect x="4858.472031249999" y="5.0" width="69.45953125" height="40" stroke="black" fill="white" stroke-width="1" /><text x="4893.201796875" y="25.0" dominant-baseline="middle" text-anchor="middle" font-size="14px" font-family="Arial">Rx(x_12)</text><rect x="4858.472031249999" y="55.0" width="69.45953125" height="40" stroke="black" fill="white" stroke-width="1" /><text x="4893.201796875" y="75.0" dominant-baseline="middle" text-anchor="middle" font-size="14px" font-family="Arial">Rx(x_13)</text><rect x="4947.931562499999" y="5.0" width="68.5230078125" height="40" stroke="black" fill="white" stroke-width="1" /><text x="4982.193066406249" y="25.0" dominant-baseline="middle" text-anchor="middle" font-size="14px" font-family="Arial">Rz(x_14)</text><rect x="4947.931562499999" y="55.0" width="68.5230078125" height="40" stroke="black" fill="white" stroke-width="1" /><text x="4982.193066406249" y="75.0" dominant-baseline="middle" text-anchor="middle" font-size="14px" font-family="Arial">Rz(x_15)</text><circle cx="5070.716074218749" cy="25.0" r="10.0" /><rect x="5036.454570312499" y="55.0" width="68.5230078125" height="40" stroke="black" fill="white" stroke-width="1" /><text x="5070.716074218749" y="75.0" dominant-baseline="middle" text-anchor="middle" font-size="14px" font-family="Arial">Rz(x_16)</text><circle cx="5159.2390820312485" cy="75.0" r="10.0" /><rect x="5124.977578124998" y="5.0" width="68.5230078125" height="40" stroke="black" fill="white" stroke-width="1" /><text x="5159.2390820312485" y="25.0" dominant-baseline="middle" text-anchor="middle" font-size="14px" font-family="Arial">Rz(x_17)</text><rect x="5213.500585937498" y="5.0" width="69.45953125" height="40" stroke="black" fill="white" stroke-width="1" /><text x="5248.230351562498" y="25.0" dominant-baseline="middle" text-anchor="middle" font-size="14px" font-family="Arial">Rx(x_18)</text><rect x="5213.500585937498" y="55.0" width="69.45953125" height="40" stroke="black" fill="white" stroke-width="1" /><text x="5248.230351562498" y="75.0" dominant-baseline="middle" text-anchor="middle" font-size="14px" font-family="Arial">Rx(x_19)</text><rect x="5302.960117187497" y="5.0" width="68.5230078125" height="40" stroke="black" fill="white" stroke-width="1" /><text x="5337.221621093748" y="25.0" dominant-baseline="middle" text-anchor="middle" font-size="14px" font-family="Arial">Rz(x_20)</text><rect x="5302.960117187497" y="55.0" width="68.5230078125" height="40" stroke="black" fill="white" stroke-width="1" /><text x="5337.221621093748" y="75.0" dominant-baseline="middle" text-anchor="middle" font-size="14px" font-family="Arial">Rz(x_21)</text><rect x="5391.483124999997" y="55.0" width="69.45953125" height="40" stroke="black" fill="white" stroke-width="1" /><text x="5426.212890624997" y="75.0" dominant-baseline="middle" text-anchor="middle" font-size="14px" font-family="Arial">Rx(x_12)</text><rect x="5391.483124999997" y="105.0" width="69.45953125" height="40" stroke="black" fill="white" stroke-width="1" /><text x="5426.212890624997" y="125.0" dominant-baseline="middle" text-anchor="middle" font-size="14px" font-family="Arial">Rx(x_13)</text><rect x="5480.942656249997" y="55.0" width="68.5230078125" height="40" stroke="black" fill="white" stroke-width="1" /><text x="5515.204160156247" y="75.0" dominant-baseline="middle" text-anchor="middle" font-size="14px" font-family="Arial">Rz(x_14)</text><rect x="5480.942656249997" y="105.0" width="68.5230078125" height="40" stroke="black" fill="white" stroke-width="1" /><text x="5515.204160156247" y="125.0" dominant-baseline="middle" text-anchor="middle" font-size="14px" font-family="Arial">Rz(x_15)</text><circle cx="5603.7271679687465" cy="75.0" r="10.0" /><rect x="5569.465664062496" y="105.0" width="68.5230078125" height="40" stroke="black" fill="white" stroke-width="1" /><text x="5603.7271679687465" y="125.0" dominant-baseline="middle" text-anchor="middle" font-size="14px" font-family="Arial">Rz(x_16)</text><circle cx="5692.250175781246" cy="125.0" r="10.0" /><rect x="5657.988671874996" y="55.0" width="68.5230078125" height="40" stroke="black" fill="white" stroke-width="1" /><text x="5692.250175781246" y="75.0" dominant-baseline="middle" text-anchor="middle" font-size="14px" font-family="Arial">Rz(x_17)</text><rect x="5746.511679687495" y="55.0" width="69.45953125" height="40" stroke="black" fill="white" stroke-width="1" /><text x="5781.241445312496" y="75.0" dominant-baseline="middle" text-anchor="middle" font-size="14px" font-family="Arial">Rx(x_18)</text><rect x="5746.511679687495" y="105.0" width="69.45953125" height="40" stroke="black" fill="white" stroke-width="1" /><text x="5781.241445312496" y="125.0" dominant-baseline="middle" text-anchor="middle" font-size="14px" font-family="Arial">Rx(x_19)</text><rect x="5835.971210937495" y="55.0" width="68.5230078125" height="40" stroke="black" fill="white" stroke-width="1" /><text x="5870.232714843745" y="75.0" dominant-baseline="middle" text-anchor="middle" font-size="14px" font-family="Arial">Rz(x_20)</text><rect x="5835.971210937495" y="105.0" width="68.5230078125" height="40" stroke="black" fill="white" stroke-width="1" /><text x="5870.232714843745" y="125.0" dominant-baseline="middle" text-anchor="middle" font-size="14px" font-family="Arial">Rz(x_21)</text><rect x="5924.494218749995" y="105.0" width="69.45953125" height="40" stroke="black" fill="white" stroke-width="1" /><text x="5959.223984374995" y="125.0" dominant-baseline="middle" text-anchor="middle" font-size="14px" font-family="Arial">Rx(x_12)</text><rect x="5924.494218749995" y="155.0" width="69.45953125" height="40" stroke="black" fill="white" stroke-width="1" /><text x="5959.223984374995" y="175.0" dominant-baseline="middle" text-anchor="middle" font-size="14px" font-family="Arial">Rx(x_13)</text><rect x="6013.953749999994" y="105.0" width="68.5230078125" height="40" stroke="black" fill="white" stroke-width="1" /><text x="6048.2152539062445" y="125.0" dominant-baseline="middle" text-anchor="middle" font-size="14px" font-family="Arial">Rz(x_14)</text><rect x="6013.953749999994" y="155.0" width="68.5230078125" height="40" stroke="black" fill="white" stroke-width="1" /><text x="6048.2152539062445" y="175.0" dominant-baseline="middle" text-anchor="middle" font-size="14px" font-family="Arial">Rz(x_15)</text><circle cx="6136.738261718744" cy="125.0" r="10.0" /><rect x="6102.476757812494" y="155.0" width="68.5230078125" height="40" stroke="black" fill="white" stroke-width="1" /><text x="6136.738261718744" y="175.0" dominant-baseline="middle" text-anchor="middle" font-size="14px" font-family="Arial">Rz(x_16)</text><circle cx="6225.261269531244" cy="175.0" r="10.0" /><rect x="6190.999765624993" y="105.0" width="68.5230078125" height="40" stroke="black" fill="white" stroke-width="1" /><text x="6225.261269531244" y="125.0" dominant-baseline="middle" text-anchor="middle" font-size="14px" font-family="Arial">Rz(x_17)</text><rect x="6279.522773437493" y="105.0" width="69.45953125" height="40" stroke="black" fill="white" stroke-width="1" /><text x="6314.252539062493" y="125.0" dominant-baseline="middle" text-anchor="middle" font-size="14px" font-family="Arial">Rx(x_18)</text><rect x="6279.522773437493" y="155.0" width="69.45953125" height="40" stroke="black" fill="white" stroke-width="1" /><text x="6314.252539062493" y="175.0" dominant-baseline="middle" text-anchor="middle" font-size="14px" font-family="Arial">Rx(x_19)</text><rect x="6368.982304687493" y="105.0" width="68.5230078125" height="40" stroke="black" fill="white" stroke-width="1" /><text x="6403.243808593743" y="125.0" dominant-baseline="middle" text-anchor="middle" font-size="14px" font-family="Arial">Rz(x_20)</text><rect x="6368.982304687493" y="155.0" width="68.5230078125" height="40" stroke="black" fill="white" stroke-width="1" /><text x="6403.243808593743" y="175.0" dominant-baseline="middle" text-anchor="middle" font-size="14px" font-family="Arial">Rz(x_21)</text><rect x="6457.505312499992" y="155.0" width="69.45953125" height="40" stroke="black" fill="white" stroke-width="1" /><text x="6492.2350781249925" y="175.0" dominant-baseline="middle" text-anchor="middle" font-size="14px" font-family="Arial">Rx(x_12)</text><rect x="6457.505312499992" y="5.0" width="69.45953125" height="40" stroke="black" fill="white" stroke-width="1" /><text x="6492.2350781249925" y="25.0" dominant-baseline="middle" text-anchor="middle" font-size="14px" font-family="Arial">Rx(x_13)</text><rect x="6546.964843749992" y="155.0" width="68.5230078125" height="40" stroke="black" fill="white" stroke-width="1" /><text x="6581.226347656242" y="175.0" dominant-baseline="middle" text-anchor="middle" font-size="14px" font-family="Arial">Rz(x_14)</text><rect x="6546.964843749992" y="5.0" width="68.5230078125" height="40" stroke="black" fill="white" stroke-width="1" /><text x="6581.226347656242" y="25.0" dominant-baseline="middle" text-anchor="middle" font-size="14px" font-family="Arial">Rz(x_15)</text><circle cx="6669.749355468742" cy="175.0" r="10.0" /><rect x="6635.487851562491" y="5.0" width="68.5230078125" height="40" stroke="black" fill="white" stroke-width="1" /><text x="6669.749355468742" y="25.0" dominant-baseline="middle" text-anchor="middle" font-size="14px" font-family="Arial">Rz(x_16)</text><circle cx="6758.272363281241" cy="25.0" r="10.0" /><rect x="6724.010859374991" y="155.0" width="68.5230078125" height="40" stroke="black" fill="white" stroke-width="1" /><text x="6758.272363281241" y="175.0" dominant-baseline="middle" text-anchor="middle" font-size="14px" font-family="Arial">Rz(x_17)</text><rect x="6812.533867187491" y="155.0" width="69.45953125" height="40" stroke="black" fill="white" stroke-width="1" /><text x="6847.263632812491" y="175.0" dominant-baseline="middle" text-anchor="middle" font-size="14px" font-family="Arial">Rx(x_18)</text><rect x="6812.533867187491" y="5.0" width="69.45953125" height="40" stroke="black" fill="white" stroke-width="1" /><text x="6847.263632812491" y="25.0" dominant-baseline="middle" text-anchor="middle" font-size="14px" font-family="Arial">Rx(x_19)</text><rect x="6901.99339843749" y="155.0" width="68.5230078125" height="40" stroke="black" fill="white" stroke-width="1" /><text x="6936.2549023437405" y="175.0" dominant-baseline="middle" text-anchor="middle" font-size="14px" font-family="Arial">Rz(x_20)</text><rect x="6901.99339843749" y="5.0" width="68.5230078125" height="40" stroke="black" fill="white" stroke-width="1" /><text x="6936.2549023437405" y="25.0" dominant-baseline="middle" text-anchor="middle" font-size="14px" font-family="Arial">Rz(x_21)</text><circle cx="7024.77791015624" cy="175.0" r="10.0" /><rect x="6990.51640624999" y="5.0" width="68.5230078125" height="40" stroke="black" fill="white" stroke-width="1" /><text x="7024.77791015624" y="25.0" dominant-baseline="middle" text-anchor="middle" font-size="14px" font-family="Arial">Rz(x_22)</text><rect x="7079.039414062489" y="155.0" width="40" height="40" stroke="black" fill="white" stroke-width="1" /><text x="7099.039414062489" y="175.0" dominant-baseline="middle" text-anchor="middle" font-size="18px" font-family="Arial">X</text><circle cx="7173.76917968749" cy="175.0" r="10.0" /><rect x="7139.039414062489" y="5.0" width="69.45953125" height="40" stroke="black" fill="white" stroke-width="1" /><text x="7173.76917968749" y="25.0" dominant-baseline="middle" text-anchor="middle" font-size="14px" font-family="Arial">Rx(x_23)</text><circle cx="7262.760449218739" cy="125.0" r="10.0" /><rect x="7228.498945312489" y="55.0" width="68.5230078125" height="40" stroke="black" fill="white" stroke-width="1" /><text x="7262.760449218739" y="75.0" dominant-baseline="middle" text-anchor="middle" font-size="14px" font-family="Arial">Rz(x_22)</text><rect x="7317.021953124989" y="105.0" width="40" height="40" stroke="black" fill="white" stroke-width="1" /><text x="7337.021953124989" y="125.0" dominant-baseline="middle" text-anchor="middle" font-size="18px" font-family="Arial">X</text><circle cx="7411.751718749989" cy="125.0" r="10.0" /><rect x="7377.021953124989" y="55.0" width="69.45953125" height="40" stroke="black" fill="white" stroke-width="1" /><text x="7411.751718749989" y="75.0" dominant-baseline="middle" text-anchor="middle" font-size="14px" font-family="Arial">Rx(x_23)</text><rect x="7466.481484374988" y="5.0" width="69.45953125" height="40" stroke="black" fill="white" stroke-width="1" /><text x="7501.2112499999885" y="25.0" dominant-baseline="middle" text-anchor="middle" font-size="14px" font-family="Arial">Rx(x_24)</text><rect x="7466.481484374988" y="55.0" width="69.45953125" height="40" stroke="black" fill="white" stroke-width="1" /><text x="7501.2112499999885" y="75.0" dominant-baseline="middle" text-anchor="middle" font-size="14px" font-family="Arial">Rx(x_25)</text><rect x="7555.941015624988" y="5.0" width="68.5230078125" height="40" stroke="black" fill="white" stroke-width="1" /><text x="7590.202519531238" y="25.0" dominant-baseline="middle" text-anchor="middle" font-size="14px" font-family="Arial">Rz(x_26)</text><rect x="7555.941015624988" y="55.0" width="68.5230078125" height="40" stroke="black" fill="white" stroke-width="1" /><text x="7590.202519531238" y="75.0" dominant-baseline="middle" text-anchor="middle" font-size="14px" font-family="Arial">Rz(x_27)</text><circle cx="7678.725527343738" cy="25.0" r="10.0" /><rect x="7644.464023437487" y="55.0" width="68.5230078125" height="40" stroke="black" fill="white" stroke-width="1" /><text x="7678.725527343738" y="75.0" dominant-baseline="middle" text-anchor="middle" font-size="14px" font-family="Arial">Rz(x_28)</text><circle cx="7767.248535156237" cy="75.0" r="10.0" /><rect x="7732.987031249987" y="5.0" width="68.5230078125" height="40" stroke="black" fill="white" stroke-width="1" /><text x="7767.248535156237" y="25.0" dominant-baseline="middle" text-anchor="middle" font-size="14px" font-family="Arial">Rz(x_29)</text><rect x="7821.510039062487" y="5.0" width="69.45953125" height="40" stroke="black" fill="white" stroke-width="1" /><text x="7856.239804687487" y="25.0" dominant-baseline="middle" text-anchor="middle" font-size="14px" font-family="Arial">Rx(x_30)</text><rect x="7821.510039062487" y="55.0" width="69.45953125" height="40" stroke="black" fill="white" stroke-width="1" /><text x="7856.239804687487" y="75.0" dominant-baseline="middle" text-anchor="middle" font-size="14px" font-family="Arial">Rx(x_31)</text><rect x="7910.969570312486" y="5.0" width="68.5230078125" height="40" stroke="black" fill="white" stroke-width="1" /><text x="7945.2310742187365" y="25.0" dominant-baseline="middle" text-anchor="middle" font-size="14px" font-family="Arial">Rz(x_32)</text><rect x="7910.969570312486" y="55.0" width="68.5230078125" height="40" stroke="black" fill="white" stroke-width="1" /><text x="7945.2310742187365" y="75.0" dominant-baseline="middle" text-anchor="middle" font-size="14px" font-family="Arial">Rz(x_33)</text><circle cx="8033.754082031236" cy="75.0" r="10.0" /><rect x="7999.492578124986" y="5.0" width="68.5230078125" height="40" stroke="black" fill="white" stroke-width="1" /><text x="8033.754082031236" y="25.0" dominant-baseline="middle" text-anchor="middle" font-size="14px" font-family="Arial">Rz(x_34)</text><rect x="8088.015585937485" y="55.0" width="40" height="40" stroke="black" fill="white" stroke-width="1" /><text x="8108.015585937485" y="75.0" dominant-baseline="middle" text-anchor="middle" font-size="18px" font-family="Arial">X</text><circle cx="8182.745351562486" cy="75.0" r="10.0" /><rect x="8148.015585937485" y="5.0" width="69.45953125" height="40" stroke="black" fill="white" stroke-width="1" /><text x="8182.745351562486" y="25.0" dominant-baseline="middle" text-anchor="middle" font-size="14px" font-family="Arial">Rx(x_35)</text></svg>