<svg xmlns="http://www.w3.org/2000/svg" width="1316.1578125000003" height="400.0"><line x1="30.0" x2="1286.1578125000003" y1="25.0" y2="25.0" stroke="#1967d2" stroke-width="1" /><line x1="30.0" x2="1286.1578125000003" y1="75.0" y2="75.0" stroke="#1967d2" stroke-width="1" /><line x1="30.0" x2="1286.1578125000003" y1="125.0" y2="125.0" stroke="#1967d2" stroke-width="1" /><line x1="30.0" x2="1286.1578125000003" y1="175.0" y2="175.0" stroke="#1967d2" stroke-width="1" /><line x1="30.0" x2="1286.1578125000003" y1="225.0" y2="225.0" stroke="#1967d2" stroke-width="1" /><line x1="30.0" x2="1286.1578125000003" y1="275.0" y2="275.0" stroke="#1967d2" stroke-width="1" /><line x1="30.0" x2="1286.1578125000003" y1="325.0" y2="325.0" stroke="#1967d2" stroke-width="1" /><line x1="30.0" x2="1286.1578125000003" y1="375.0" y2="375.0" stroke="#1967d2" stroke-width="1" /><line x1="99.807890625" x2="99.807890625" y1="175.0" y2="275.0" stroke="black" stroke-width="3" /><line x1="179.423671875" x2="179.423671875" y1="225.0" y2="325.0" stroke="black" stroke-width="3" /><line x1="259.039453125" x2="259.039453125" y1="275.0" y2="375.0" stroke="black" stroke-width="3" /><line x1="338.65523437499996" x2="338.65523437499996" y1="25.0" y2="325.0" stroke="black" stroke-width="3" /><line x1="418.271015625" x2="418.271015625" y1="75.0" y2="375.0" stroke="black" stroke-width="3" /><line x1="488.07890625" x2="488.07890625" y1="25.0" y2="275.0" stroke="black" stroke-width="3" /><line x1="548.07890625" x2="548.07890625" y1="125.0" y2="375.0" stroke="black" stroke-width="3" /><line x1="608.07890625" x2="608.07890625" y1="75.0" y2="225.0" stroke="black" stroke-width="3" /><line x1="668.07890625" x2="668.07890625" y1="175.0" y2="325.0" stroke="black" stroke-width="3" /><line x1="737.8867968750001" x2="737.8867968750001" y1="75.0" y2="275.0" stroke="black" stroke-width="3" /><line x1="817.5025781250001" x2="817.5025781250001" y1="175.0" y2="375.0" stroke="black" stroke-width="3" /><line x1="897.1183593750002" x2="897.1183593750002" y1="75.0" y2="275.0" stroke="black" stroke-width="3" /><line x1="976.7341406250002" x2="976.7341406250002" y1="175.0" y2="375.0" stroke="black" stroke-width="3" /><line x1="1046.5420312500003" x2="1046.5420312500003" y1="75.0" y2="375.0" stroke="black" stroke-width="3" /><line x1="1106.5420312500003" x2="1106.5420312500003" y1="175.0" y2="275.0" stroke="black" stroke-width="3" /><line x1="1176.3499218750003" x2="1176.3499218750003" y1="175.0" y2="375.0" stroke="black" stroke-width="3" /><line x1="1246.1578125000003" x2="1246.1578125000003" y1="175.0" y2="375.0" stroke="black" stroke-width="3" /><rect x="10.0" y="5.0" width="40" height="40" stroke="black" fill="white" stroke-width="0" /><text x="30.0" y="25.0" dominant-baseline="middle" text-anchor="middle" font-size="14px" font-family="Arial">1: </text><rect x="10.0" y="55.0" width="40" height="40" stroke="black" fill="white" stroke-width="0" /><text x="30.0" y="75.0" dominant-baseline="middle" text-anchor="middle" font-size="14px" font-family="Arial">2: </text><rect x="10.0" y="105.0" width="40" height="40" stroke="black" fill="white" stroke-width="0" /><text x="30.0" y="125.0" dominant-baseline="middle" text-anchor="middle" font-size="14px" font-family="Arial">3: </text><rect x="10.0" y="155.0" width="40" height="40" stroke="black" fill="white" stroke-width="0" /><text x="30.0" y="175.0" dominant-baseline="middle" text-anchor="middle" font-size="14px" font-family="Arial">4: </text><rect x="10.0" y="205.0" width="40" height="40" stroke="black" fill="white" stroke-width="0" /><text x="30.0" y="225.0" dominant-baseline="middle" text-anchor="middle" font-size="14px" font-family="Arial">5: </text><rect x="10.0" y="255.0" width="40" height="40" stroke="black" fill="white" stroke-width="0" /><text x="30.0" y="275.0" dominant-baseline="middle" text-anchor="middle" font-size="14px" font-family="Arial">6: </text><rect x="10.0" y="305.0" width="40" height="40" stroke="black" fill="white" stroke-width="0" /><text x="30.0" y="325.0" dominant-baseline="middle" text-anchor="middle" font-size="14px" font-family="Arial">7: </text><rect x="10.0" y="355.0" width="40" height="40" stroke="black" fill="white" stroke-width="0" /><text x="30.0" y="375.0" dominant-baseline="middle" text-anchor="middle" font-size="14px" font-family="Arial">8: </text><circle cx="99.807890625" cy="175.0" r="10.0" /><rect x="70.0" y="255.0" width="59.61578125" height="40" stroke="black" fill="white" stroke-width="1" /><text x="99.807890625" y="275.0" dominant-baseline="middle" text-anchor="middle" font-size="14px" font-family="Arial">Rz(x_0)</text><circle cx="179.423671875" cy="225.0" r="10.0" /><rect x="149.61578125" y="305.0" width="59.61578125" height="40" stroke="black" fill="white" stroke-width="1" /><text x="179.423671875" y="325.0" dominant-baseline="middle" text-anchor="middle" font-size="14px" font-family="Arial">Rz(x_0)</text><circle cx="259.039453125" cy="275.0" r="10.0" /><rect x="229.23156250000002" y="355.0" width="59.61578125" height="40" stroke="black" fill="white" stroke-width="1" /><text x="259.039453125" y="375.0" dominant-baseline="middle" text-anchor="middle" font-size="14px" font-family="Arial">Rz(x_0)</text><circle cx="338.65523437499996" cy="325.0" r="10.0" /><rect x="308.84734374999994" y="5.0" width="59.61578125" height="40" stroke="black" fill="white" stroke-width="1" /><text x="338.65523437499996" y="25.0" dominant-baseline="middle" text-anchor="middle" font-size="14px" font-family="Arial">Rz(x_0)</text><circle cx="418.271015625" cy="375.0" r="10.0" /><rect x="388.463125" y="55.0" width="59.61578125" height="40" stroke="black" fill="white" stroke-width="1" /><text x="418.271015625" y="75.0" dominant-baseline="middle" text-anchor="middle" font-size="14px" font-family="Arial">Rz(x_0)</text><circle cx="488.07890625" cy="25.0" r="10.0" /><rect x="468.07890625" y="255.0" width="40" height="40" stroke="black" fill="white" stroke-width="1" /><text x="488.07890625" y="275.0" dominant-baseline="middle" text-anchor="middle" font-size="18px" font-family="Arial">X</text><circle cx="548.07890625" cy="125.0" r="10.0" /><rect x="528.07890625" y="355.0" width="40" height="40" stroke="black" fill="white" stroke-width="1" /><text x="548.07890625" y="375.0" dominant-baseline="middle" text-anchor="middle" font-size="18px" font-family="Arial">X</text><circle cx="608.07890625" cy="225.0" r="10.0" /><rect x="588.07890625" y="55.0" width="40" height="40" stroke="black" fill="white" stroke-width="1" /><text x="608.07890625" y="75.0" dominant-baseline="middle" text-anchor="middle" font-size="18px" font-family="Arial">X</text><circle cx="668.07890625" cy="325.0" r="10.0" /><rect x="648.07890625" y="155.0" width="40" height="40" stroke="black" fill="white" stroke-width="1" /><text x="668.07890625" y="175.0" dominant-baseline="middle" text-anchor="middle" font-size="18px" font-family="Arial">X</text><circle cx="737.8867968750001" cy="75.0" r="10.0" /><rect x="708.07890625" y="255.0" width="59.61578125" height="40" stroke="black" fill="white" stroke-width="1" /><text x="737.8867968750001" y="275.0" dominant-baseline="middle" text-anchor="middle" font-size="14px" font-family="Arial">Rz(x_1)</text><circle cx="817.5025781250001" cy="175.0" r="10.0" /><rect x="787.6946875000001" y="355.0" width="59.61578125" height="40" stroke="black" fill="white" stroke-width="1" /><text x="817.5025781250001" y="375.0" dominant-baseline="middle" text-anchor="middle" font-size="14px" font-family="Arial">Rz(x_1)</text><circle cx="897.1183593750002" cy="275.0" r="10.0" /><rect x="867.3104687500002" y="55.0" width="59.61578125" height="40" stroke="black" fill="white" stroke-width="1" /><text x="897.1183593750002" y="75.0" dominant-baseline="middle" text-anchor="middle" font-size="14px" font-family="Arial">Rz(x_1)</text><circle cx="976.7341406250002" cy="375.0" r="10.0" /><rect x="946.9262500000002" y="155.0" width="59.61578125" height="40" stroke="black" fill="white" stroke-width="1" /><text x="976.7341406250002" y="175.0" dominant-baseline="middle" text-anchor="middle" font-size="14px" font-family="Arial">Rz(x_1)</text><circle cx="1046.5420312500003" cy="75.0" r="10.0" /><rect x="1026.5420312500003" y="355.0" width="40" height="40" stroke="black" fill="white" stroke-width="1" /><text x="1046.5420312500003" y="375.0" dominant-baseline="middle" text-anchor="middle" font-size="18px" font-family="Arial">X</text><circle cx="1106.5420312500003" cy="275.0" r="10.0" /><rect x="1086.5420312500003" y="155.0" width="40" height="40" stroke="black" fill="white" stroke-width="1" /><text x="1106.5420312500003" y="175.0" dominant-baseline="middle" text-anchor="middle" font-size="18px" font-family="Arial">X</text><circle cx="1176.3499218750003" cy="375.0" r="10.0" /><rect x="1146.5420312500003" y="155.0" width="59.61578125" height="40" stroke="black" fill="white" stroke-width="1" /><text x="1176.3499218750003" y="175.0" dominant-baseline="middle" text-anchor="middle" font-size="14px" font-family="Arial">Rz(x_2)</text><circle cx="1246.1578125000003" cy="375.0" r="10.0" /><rect x="1226.1578125000003" y="155.0" width="40" height="40" stroke="black" fill="white" stroke-width="1" /><text x="1246.1578125000003" y="175.0" dominant-baseline="middle" text-anchor="middle" font-size="18px" font-family="Arial">X</text></svg>