<svg xmlns="http://www.w3.org/2000/svg" width="1236.5420312500003" height="400.0"><line x1="30.0" x2="1206.5420312500003" y1="25.0" y2="25.0" stroke="#1967d2" stroke-width="1" /><line x1="30.0" x2="1206.5420312500003" y1="75.0" y2="75.0" stroke="#1967d2" stroke-width="1" /><line x1="30.0" x2="1206.5420312500003" y1="125.0" y2="125.0" stroke="#1967d2" stroke-width="1" /><line x1="30.0" x2="1206.5420312500003" y1="175.0" y2="175.0" stroke="#1967d2" stroke-width="1" /><line x1="30.0" x2="1206.5420312500003" y1="225.0" y2="225.0" stroke="#1967d2" stroke-width="1" /><line x1="30.0" x2="1206.5420312500003" y1="275.0" y2="275.0" stroke="#1967d2" stroke-width="1" /><line x1="30.0" x2="1206.5420312500003" y1="325.0" y2="325.0" stroke="#1967d2" stroke-width="1" /><line x1="30.0" x2="1206.5420312500003" y1="375.0" y2="375.0" stroke="#1967d2" stroke-width="1" /><line x1="99.807890625" x2="99.807890625" y1="225.0" y2="325.0" stroke="black" stroke-width="3" /><line x1="179.423671875" x2="179.423671875" y1="275.0" y2="375.0" stroke="black" stroke-width="3" /><line x1="249.2315625" x2="249.2315625" y1="25.0" y2="125.0" stroke="black" stroke-width="3" /><line x1="309.2315625" x2="309.2315625" y1="75.0" y2="175.0" stroke="black" stroke-width="3" /><line x1="369.2315625" x2="369.2315625" y1="225.0" y2="325.0" stroke="black" stroke-width="3" /><line x1="429.2315625" x2="429.2315625" y1="275.0" y2="375.0" stroke="black" stroke-width="3" /><line x1="499.039453125" x2="499.039453125" y1="125.0" y2="175.0" stroke="black" stroke-width="3" /><line x1="578.655234375" x2="578.655234375" y1="125.0" y2="225.0" stroke="black" stroke-width="3" /><line x1="658.271015625" x2="658.271015625" y1="125.0" y2="275.0" stroke="black" stroke-width="3" /><line x1="737.8867968750001" x2="737.8867968750001" y1="175.0" y2="225.0" stroke="black" stroke-width="3" /><line x1="817.5025781250001" x2="817.5025781250001" y1="175.0" y2="275.0" stroke="black" stroke-width="3" /><line x1="897.1183593750002" x2="897.1183593750002" y1="225.0" y2="275.0" stroke="black" stroke-width="3" /><line x1="966.9262500000002" x2="966.9262500000002" y1="125.0" y2="175.0" stroke="black" stroke-width="3" /><line x1="1026.9262500000002" x2="1026.9262500000002" y1="225.0" y2="275.0" stroke="black" stroke-width="3" /><line x1="1096.7341406250002" x2="1096.7341406250002" y1="175.0" y2="275.0" stroke="black" stroke-width="3" /><line x1="1166.5420312500003" x2="1166.5420312500003" y1="175.0" y2="275.0" stroke="black" stroke-width="3" /><rect x="10.0" y="5.0" width="40" height="40" stroke="black" fill="white" stroke-width="0" /><text x="30.0" y="25.0" dominant-baseline="middle" text-anchor="middle" font-size="14px" font-family="Arial">1: </text><rect x="10.0" y="55.0" width="40" height="40" stroke="black" fill="white" stroke-width="0" /><text x="30.0" y="75.0" dominant-baseline="middle" text-anchor="middle" font-size="14px" font-family="Arial">2: </text><rect x="10.0" y="105.0" width="40" height="40" stroke="black" fill="white" stroke-width="0" /><text x="30.0" y="125.0" dominant-baseline="middle" text-anchor="middle" font-size="14px" font-family="Arial">3: </text><rect x="10.0" y="155.0" width="40" height="40" stroke="black" fill="white" stroke-width="0" /><text x="30.0" y="175.0" dominant-baseline="middle" text-anchor="middle" font-size="14px" font-family="Arial">4: </text><rect x="10.0" y="205.0" width="40" height="40" stroke="black" fill="white" stroke-width="0" /><text x="30.0" y="225.0" dominant-baseline="middle" text-anchor="middle" font-size="14px" font-family="Arial">5: </text><rect x="10.0" y="255.0" width="40" height="40" stroke="black" fill="white" stroke-width="0" /><text x="30.0" y="275.0" dominant-baseline="middle" text-anchor="middle" font-size="14px" font-family="Arial">6: </text><rect x="10.0" y="305.0" width="40" height="40" stroke="black" fill="white" stroke-width="0" /><text x="30.0" y="325.0" dominant-baseline="middle" text-anchor="middle" font-size="14px" font-family="Arial">7: </text><rect x="10.0" y="355.0" width="40" height="40" stroke="black" fill="white" stroke-width="0" /><text x="30.0" y="375.0" dominant-baseline="middle" text-anchor="middle" font-size="14px" font-family="Arial">8: </text><circle cx="99.807890625" cy="325.0" r="10.0" /><rect x="70.0" y="205.0" width="59.61578125" height="40" stroke="black" fill="white" stroke-width="1" /><text x="99.807890625" y="225.0" dominant-baseline="middle" text-anchor="middle" font-size="14px" font-family="Arial">Rz(x_0)</text><circle cx="179.423671875" cy="375.0" r="10.0" /><rect x="149.61578125" y="255.0" width="59.61578125" height="40" stroke="black" fill="white" stroke-width="1" /><text x="179.423671875" y="275.0" dominant-baseline="middle" text-anchor="middle" font-size="14px" font-family="Arial">Rz(x_0)</text><circle cx="249.2315625" cy="25.0" r="10.0" /><rect x="229.2315625" y="105.0" width="40" height="40" stroke="black" fill="white" stroke-width="1" /><text x="249.2315625" y="125.0" dominant-baseline="middle" text-anchor="middle" font-size="18px" font-family="Arial">X</text><circle cx="309.2315625" cy="75.0" r="10.0" /><rect x="289.2315625" y="155.0" width="40" height="40" stroke="black" fill="white" stroke-width="1" /><text x="309.2315625" y="175.0" dominant-baseline="middle" text-anchor="middle" font-size="18px" font-family="Arial">X</text><circle cx="369.2315625" cy="325.0" r="10.0" /><rect x="349.2315625" y="205.0" width="40" height="40" stroke="black" fill="white" stroke-width="1" /><text x="369.2315625" y="225.0" dominant-baseline="middle" text-anchor="middle" font-size="18px" font-family="Arial">X</text><circle cx="429.2315625" cy="375.0" r="10.0" /><rect x="409.2315625" y="255.0" width="40" height="40" stroke="black" fill="white" stroke-width="1" /><text x="429.2315625" y="275.0" dominant-baseline="middle" text-anchor="middle" font-size="18px" font-family="Arial">X</text><circle cx="499.039453125" cy="125.0" r="10.0" /><rect x="469.2315625" y="155.0" width="59.61578125" height="40" stroke="black" fill="white" stroke-width="1" /><text x="499.039453125" y="175.0" dominant-baseline="middle" text-anchor="middle" font-size="14px" font-family="Arial">Rz(x_1)</text><circle cx="578.655234375" cy="125.0" r="10.0" /><rect x="548.8473437499999" y="205.0" width="59.61578125" height="40" stroke="black" fill="white" stroke-width="1" /><text x="578.655234375" y="225.0" dominant-baseline="middle" text-anchor="middle" font-size="14px" font-family="Arial">Rz(x_1)</text><circle cx="658.271015625" cy="125.0" r="10.0" /><rect x="628.463125" y="255.0" width="59.61578125" height="40" stroke="black" fill="white" stroke-width="1" /><text x="658.271015625" y="275.0" dominant-baseline="middle" text-anchor="middle" font-size="14px" font-family="Arial">Rz(x_1)</text><circle cx="737.8867968750001" cy="175.0" r="10.0" /><rect x="708.07890625" y="205.0" width="59.61578125" height="40" stroke="black" fill="white" stroke-width="1" /><text x="737.8867968750001" y="225.0" dominant-baseline="middle" text-anchor="middle" font-size="14px" font-family="Arial">Rz(x_1)</text><circle cx="817.5025781250001" cy="175.0" r="10.0" /><rect x="787.6946875000001" y="255.0" width="59.61578125" height="40" stroke="black" fill="white" stroke-width="1" /><text x="817.5025781250001" y="275.0" dominant-baseline="middle" text-anchor="middle" font-size="14px" font-family="Arial">Rz(x_1)</text><circle cx="897.1183593750002" cy="225.0" r="10.0" /><rect x="867.3104687500002" y="255.0" width="59.61578125" height="40" stroke="black" fill="white" stroke-width="1" /><text x="897.1183593750002" y="275.0" dominant-baseline="middle" text-anchor="middle" font-size="14px" font-family="Arial">Rz(x_1)</text><circle cx="966.9262500000002" cy="125.0" r="10.0" /><rect x="946.9262500000002" y="155.0" width="40" height="40" stroke="black" fill="white" stroke-width="1" /><text x="966.9262500000002" y="175.0" dominant-baseline="middle" text-anchor="middle" font-size="18px" font-family="Arial">X</text><circle cx="1026.9262500000002" cy="225.0" r="10.0" /><rect x="1006.9262500000002" y="255.0" width="40" height="40" stroke="black" fill="white" stroke-width="1" /><text x="1026.9262500000002" y="275.0" dominant-baseline="middle" text-anchor="middle" font-size="18px" font-family="Arial">X</text><circle cx="1096.7341406250002" cy="175.0" r="10.0" /><rect x="1066.9262500000002" y="255.0" width="59.61578125" height="40" stroke="black" fill="white" stroke-width="1" /><text x="1096.7341406250002" y="275.0" dominant-baseline="middle" text-anchor="middle" font-size="14px" font-family="Arial">Rz(x_2)</text><circle cx="1166.5420312500003" cy="175.0" r="10.0" /><rect x="1146.5420312500003" y="255.0" width="40" height="40" stroke="black" fill="white" stroke-width="1" /><text x="1166.5420312500003" y="275.0" dominant-baseline="middle" text-anchor="middle" font-size="18px" font-family="Arial">X</text></svg>